<svg width="197" height="223" viewBox="0 0 197 223" fill="none" xmlns="http://www.w3.org/2000/svg"><rect x="6.49463" y="5.55981" width="184.014" height="211.69" stroke="#FFDC5B" stroke-width="11" fill="black"></rect><path d="M125.546 69.9587L126.1 62.3658L118.573 61.2162L124.855 56.9146L121.062 50.3149L128.342 52.5433L131.138 45.4622L133.934 52.5433L141.214 50.3149L137.421 56.9146L143.704 61.2162L136.176 62.3647L136.731 69.9576L131.138 64.791L125.546 69.9587Z" fill="#FFDB5B"></path><path d="M49.8149 58.5972C49.8149 53.9852 50.8449 50.312 52.9048 47.5776C54.9829 44.8433 57.8175 43.4761 61.4087 43.4761C64.2889 43.4761 66.6678 44.5516 68.5454 46.7026V31.6089H76.4751V73.6089H69.3384L68.9556 70.4644C66.9868 72.9253 64.453 74.1558 61.354 74.1558C57.8722 74.1558 55.0741 72.7886 52.9595 70.0542C50.8631 67.3016 49.8149 63.4826 49.8149 58.5972ZM57.7173 59.1714C57.7173 61.9422 58.2004 64.0659 59.1665 65.5425C60.1326 67.019 61.5363 67.7573 63.3774 67.7573C65.8201 67.7573 67.5428 66.7274 68.5454 64.6675V52.9917C67.561 50.9318 65.8566 49.9019 63.4321 49.9019C59.6222 49.9019 57.7173 52.9917 57.7173 59.1714ZM98.6235 65.4331C98.6235 64.467 98.1405 63.7104 97.1743 63.1636C96.2264 62.5985 94.6951 62.0972 92.5806 61.6597C85.5441 60.1831 82.0259 57.1935 82.0259 52.6909C82.0259 50.0659 83.1105 47.8784 85.2798 46.1284C87.4673 44.3602 90.3201 43.4761 93.8384 43.4761C97.5936 43.4761 100.592 44.3602 102.834 46.1284C105.095 47.8966 106.225 50.1935 106.225 53.019H98.3228C98.3228 51.8888 97.9582 50.9591 97.229 50.23C96.4998 49.4826 95.3605 49.1089 93.811 49.1089C92.4803 49.1089 91.4504 49.4097 90.7212 50.0112C89.992 50.6128 89.6274 51.3784 89.6274 52.3081C89.6274 53.1831 90.0376 53.894 90.8579 54.4409C91.6965 54.9696 93.1001 55.4344 95.0688 55.8354C97.0376 56.2183 98.6965 56.6558 100.045 57.1479C104.22 58.6792 106.307 61.3315 106.307 65.105C106.307 67.8029 105.15 69.9904 102.834 71.6675C100.519 73.3263 97.5298 74.1558 93.8657 74.1558C91.3866 74.1558 89.1808 73.7183 87.2485 72.8433C85.3345 71.95 83.8306 70.7378 82.7368 69.2065C81.6431 67.6571 81.0962 65.9891 81.0962 64.2026H88.5884C88.6613 65.6063 89.1808 66.6818 90.147 67.4292C91.1131 68.1766 92.4074 68.5503 94.0298 68.5503C95.5428 68.5503 96.6821 68.2677 97.4478 67.7026C98.2316 67.1193 98.6235 66.3628 98.6235 65.4331Z" fill="white"></path><path d="M82.4531 160.787H54.765L49.5011 176.579H32.7092L61.2396 99.9362H75.8732L104.561 176.579H87.7696L82.4531 160.787ZM59.0287 147.996H78.1893L68.5564 119.307L59.0287 147.996ZM144.199 170.788C140.444 175.35 135.25 177.631 128.618 177.631C122.511 177.631 117.844 175.877 114.616 172.367C111.422 168.858 109.79 163.717 109.72 156.944V119.623H124.933V156.418C124.933 162.349 127.635 165.314 133.039 165.314C138.198 165.314 141.742 163.524 143.672 159.945V119.623H158.938V176.579H144.62L144.199 170.788Z" fill="white"></path></svg>