<?xml version="1.0" standalone="no"?>
<!DOCTYPE svg PUBLIC "-//W3C//DTD SVG 20010904//EN" "http://www.w3.org/TR/2001/REC-SVG-20010904/DTD/svg10.dtd">
<svg version="1.0" xmlns="http://www.w3.org/2000/svg" width="260.000000pt" height="260.000000pt" viewBox="0 0 260.000000 260.000000" preserveAspectRatio="xMidYMid meet">
<g transform="translate(0.000000,260.000000) scale(0.100000,-0.100000)" fill="#000000" stroke="none">
<path d="M1297 2543 c-4 -6 -45 -131 -93 -279 -47 -148 -102 -319 -123 -381
l-36 -111 -379 144 c-208 79 -380 143 -382 141 -2 -1 98 -155 221 -342 l224
-340 -37 -22 c-20 -13 -179 -107 -353 -210 -174 -104 -316 -189 -315 -190 0 0
33 -4 71 -8 39 -3 90 -8 115 -10 25 -3 77 -7 115 -10 39 -3 90 -7 115 -10 25
-2 77 -7 115 -10 39 -3 99 -8 135 -11 36 -4 81 -8 100 -9 19 -2 39 -4 43 -4 9
-1 4 -69 -13 -176 -5 -33 -12 -80 -15 -105 -3 -25 -8 -56 -10 -70 -2 -14 -6
-47 -10 -75 -3 -27 -10 -79 -16 -115 -6 -36 -12 -78 -14 -95 -4 -44 -15 -116
-21 -148 -7 -34 4 -34 33 0 13 14 92 99 177 187 84 89 170 179 191 201 20 22
66 70 100 107 l64 67 79 -82 c44 -45 92 -96 108 -113 16 -17 94 -99 174 -183
80 -84 157 -166 171 -182 32 -36 38 -36 33 -1 -2 15 -13 95 -24 177 -11 83
-22 168 -25 190 -4 35 -9 69 -21 140 -4 28 -23 170 -30 228 -5 41 -4 47 12 48
11 0 27 2 36 4 10 2 57 6 105 9 48 4 102 8 118 10 17 2 68 7 115 11 47 3 99 8
115 10 17 2 72 6 124 10 52 4 101 9 110 10 9 2 29 4 45 4 24 1 27 3 16 16 -7
8 -16 15 -20 15 -4 0 -47 24 -96 54 -132 79 -464 276 -504 299 -78 44 -92 9
155 382 124 186 223 340 222 342 -2 2 -71 -22 -153 -53 -82 -32 -176 -67 -209
-79 -33 -13 -103 -39 -155 -59 -52 -20 -129 -50 -171 -65 l-76 -28 -37 116
c-21 64 -71 222 -113 351 -41 129 -81 252 -87 274 -7 21 -16 34 -19 29z"/>
</g>
</svg>
