<svg xmlns="http://www.w3.org/2000/svg">
	<symbol id="star" viewBox="0 0 24 24">
		<polyline id="Shape" fill="currentColor" fill-rule="evenodd" points="14 2 11.553 8.36 5.178 6.356 8.5 12.286 3 16.146 9.59 17.181 9.103 24 14 19.36 18.895
			24 18.412 17.18 25 16.148 19.5 12.286 22.822 6.358 16.448 8.36"></polyline>
		<rect id="Rectangle" fill-opacity="0" fill="#D8D8D8" x="0.494356952" y="0.416408297" width="27.0112861" height="26.1671834"></rect>
	</symbol>
	<symbol id="govau_logo" viewBox="0 0 223.46 41.46">
		<path
			fill="#fff" d="M21.95 34.17a16.9 16.9 0 0 0 6.43-1.22v-6.14h-2.72c-1.22 0-2.27 0-2.78-.6s-.52-1.61-.52-3.16v-3.07h14.73v17.08c-5.45 3.89-12.87 5-19.42
			4.08A20.62 20.62 0 0 1 2.6 30.91a22 22 0 0 1-.77-19.18A19.89 19.89 0 0 1 16.03.64C23.26-.93 31.81.29 37.38 5.48c-1 1.44-1.85 3-3 4.36-1.7
			2.07-3.81.35-5.62-.54a15.1 15.1 0 0 0-6.32-1.5c-4.38-.14-8.51 1.49-10.78 5.41a16.38 16.38 0 0 0-1 12.92 11.59 11.59 0 0 0 11.26
			8zm53.71-13.44c0-5.16-2.11-10.46-7.34-12.25-4.83-1.66-11-.46-13.9 4-2.78 4.2-2.91 10.57-.83 15.08 2.29 5 7.68 6.77 12.83 5.92 6.34-1 9.23-6.75
			9.23-12.72m9.85 0a20.31 20.31 0 0 1-14.11 19.55c-8.29 2.63-18.4.68-24.18-6.08a21.49 21.49 0 0 1-1.73-24.67C50.23 1.91 59.66-1.05 68.27.38a20.94 20.94 0 0
			1 12.22 6.58 20.7 20.7 0 0 1 5 13.74M87.79.04h7.74a3.51 3.51 0 0 1 2.05.56 3.07 3.07 0 0 1 1.14 1.47s9.84 27 10.16 28.25c.26-1.22 9.93-28.25
			9.93-28.25a3.14 3.14 0 0 1 1.11-1.4 3.25 3.25 0 0 1 2-.62h7.8l-16.57 40.46h-8.71L87.81.04z"/>
		<path fill="transparent" d="M156.1 25.03h11.33s-5.34-15.55-5.66-16.66c-.31 1.13-5.67 16.66-5.67 16.66z"/>
		<path fill="#44c2ef" d="M223.35 14.73V.04h-9.62v16.32c0 6.5 1.16 16.73-8.2 16.73s-8.2-10.25-8.2-16.75V.04h-9.62v17.09c0 6.75-.55 13.9 4.75 19.07 7.95 7.75
			23.94 6.13 29.06-4.07 2.61-5.19 1.83-11.71 1.83-17.4zM156.84.04l-16 40.47h7.51a3.26 3.26 0 0 0 2-.62 3.15 3.15 0 0 0 1.11-1.4l2.45-7.06h15.77l2.45
			7.06a3 3 0 0 0 1.13 1.46 3.51 3.51 0 0 0 2.06.57h7.45L166.69.04h-9.85zm-.74 25s5.36-15.53 5.67-16.66c.32 1.11 5.66 16.66 5.66 16.66H156.1zm26.64
			15.46h.01-.01"/>
		<circle fill="#44c2ef" cx="130.73" cy="35.82" r="4.83"/>
 	</symbol>
	<symbol id="gold" viewBox="0 0 102 128">
		<path fill="url(#GOLD-gradient)" fill-rule="evenodd" d="M7.955 120.047h86.09V7.953H7.955v112.094zM0 128h102V0H0v128zm40.642-60.462h-9.595l4.862-14.739 4.733
			14.739zM18.19 81.69h8.188l2.54-7.699h13.796l2.472 7.7h8.49L40.42 44.235h-8.858L18.19 81.69zM52.343 99.85c.463.61.694 1.48.694 2.61 0 1.131-.231
			2.003-.694 2.616-.463.614-1.126.92-1.989.92-.863 0-1.527-.306-1.994-.92-.465-.613-.699-1.485-.699-2.616 0-1.13.234-2 .7-2.61.466-.61 1.13-.915
			1.993-.915.863 0 1.526.304 1.989.915zm-6.318-1.621c-.953 1.193-1.43 2.604-1.43 4.231 0 1.656.477 3.072 1.43 4.248.953 1.176 2.4 1.764 4.34
			1.764s3.386-.588 4.34-1.764c.952-1.176 1.429-2.592 1.429-4.248 0-1.627-.477-3.038-1.43-4.231s-2.399-1.79-4.34-1.79c-1.94 0-3.386.597-4.34
			1.79zm19-15.926c1.419 0 2.656-.187 3.713-.56 1.056-.372 2.15-1.066
			3.282-2.083.372-.322.693-.695.963-1.118.27-.424.44-.678.507-.762v3.912h7.04V53.993h-7.345v15.07c0 1.778-.236 3.21-.708 4.294-.91 1.999-2.597
			2.998-5.059 2.998-1.922 0-3.211-.703-3.869-2.109-.37-.796-.556-1.982-.556-3.558V53.993h-7.422v16.695c0 3.169.397 5.566 1.191 7.192 1.42 2.947 4.174
			4.422 8.263 4.422zm-6.716 25.786h2.952V92.824H58.31v15.264zm12.543-3.066c-.435.622-1.07.932-1.906.932-.835
			0-1.459-.312-1.87-.937-.41-.625-.616-1.458-.616-2.5 0-.967.202-1.776.606-2.429.404-.652 1.038-.979 1.9-.979.567 0 1.064.18 1.492.539.698.594 1.046 1.58
			1.046 2.962 0 .987-.217 1.791-.652 2.412zm.57-6.793a3.587 3.587 0 0 0-1.295-1.247c-.532-.3-1.14-.451-1.823-.451-1.484 0-2.67.552-3.558 1.657-.887
			1.104-1.33 2.62-1.33 4.546 0 1.67.45 3.04 1.35 4.106.902 1.066 2.012 1.6 3.33 1.6.802 0 1.472-.152 2.01-.456.539-.303 1.019-.79
			1.44-1.46v1.564h2.869V92.845h-2.993v5.384zm-35.299 4.215h3.532c-.159.995-.58 1.8-1.264 2.414-.683.614-1.56.92-2.63.92-1.091
			0-2.065-.389-2.921-1.168-.857-.778-1.285-2.104-1.285-3.978 0-1.86.395-3.255 1.186-4.181.791-.927 1.8-1.39 3.03-1.39a4.35 4.35 0 0 1 1.75.341c.94.414
			1.53 1.143 1.772 2.185h3.138c-.173-1.47-.848-2.697-2.025-3.681-1.178-.984-2.736-1.476-4.677-1.476-2.237 0-4.036.746-5.396 2.236-1.36 1.49-2.04
			3.47-2.04 5.94 0 2.442.673 4.367 2.02 5.774 1.29 1.4 2.948 2.101 4.97 2.101 1.23 0 2.266-.257 3.108-.773.49-.295 1.043-.804 1.658-1.526l.32
			1.906h2.113v-8.191h-6.359v2.547zM21.467 28.639l-.493 6.75 4.971-4.594 4.972 4.593-.493-6.75 6.692-1.021-5.585-3.824 3.372-5.867-6.472
			1.981-2.486-6.295-2.485 6.295-6.472-1.981 3.372 5.867-5.585 3.824 6.692 1.022z"/>
	</symbol>
</svg>
