<svg xmlns="http://www.w3.org/2000/svg">
	<symbol id="star" viewBox="0 0 24 24">
		<polyline id="Shape" fill="currentColor" fill-rule="evenodd" points="14 2 11.553 8.36 5.178 6.356 8.5 12.286 3 16.146 9.59 17.181 9.103 24 14 19.36 18.895
			24 18.412 17.18 25 16.148 19.5 12.286 22.822 6.358 16.448 8.36"></polyline>
		<rect id="Rectangle" fill-opacity="0" fill="#D8D8D8" x="0.494356952" y="0.416408297" width="27.0112861" height="26.1671834"></rect>
	</symbol>
	<symbol id="govau_logo" viewBox="0 0 223.46 41.46">
		<path
			fill="#fff" d="M21.95 34.17a16.9 16.9 0 0 0 6.43-1.22v-6.14h-2.72c-1.22 0-2.27 0-2.78-.6s-.52-1.61-.52-3.16v-3.07h14.73v17.08c-5.45 3.89-12.87 5-19.42
			4.08A20.62 20.62 0 0 1 2.6 30.91a22 22 0 0 1-.77-19.18A19.89 19.89 0 0 1 16.03.64C23.26-.93 31.81.29 37.38 5.48c-1 1.44-1.85 3-3 4.36-1.7
			2.07-3.81.35-5.62-.54a15.1 15.1 0 0 0-6.32-1.5c-4.38-.14-8.51 1.49-10.78 5.41a16.38 16.38 0 0 0-1 12.92 11.59 11.59 0 0 0 11.26
			8zm53.71-13.44c0-5.16-2.11-10.46-7.34-12.25-4.83-1.66-11-.46-13.9 4-2.78 4.2-2.91 10.57-.83 15.08 2.29 5 7.68 6.77 12.83 5.92 6.34-1 9.23-6.75
			9.23-12.72m9.85 0a20.31 20.31 0 0 1-14.11 19.55c-8.29 2.63-18.4.68-24.18-6.08a21.49 21.49 0 0 1-1.73-24.67C50.23 1.91 59.66-1.05 68.27.38a20.94 20.94 0 0
			1 12.22 6.58 20.7 20.7 0 0 1 5 13.74M87.79.04h7.74a3.51 3.51 0 0 1 2.05.56 3.07 3.07 0 0 1 1.14 1.47s9.84 27 10.16 28.25c.26-1.22 9.93-28.25
			9.93-28.25a3.14 3.14 0 0 1 1.11-1.4 3.25 3.25 0 0 1 2-.62h7.8l-16.57 40.46h-8.71L87.81.04z"/>
		<path fill="transparent" d="M156.1 25.03h11.33s-5.34-15.55-5.66-16.66c-.31 1.13-5.67 16.66-5.67 16.66z"/>
		<path fill="#44c2ef" d="M223.35 14.73V.04h-9.62v16.32c0 6.5 1.16 16.73-8.2 16.73s-8.2-10.25-8.2-16.75V.04h-9.62v17.09c0 6.75-.55 13.9 4.75 19.07 7.95 7.75
			23.94 6.13 29.06-4.07 2.61-5.19 1.83-11.71 1.83-17.4zM156.84.04l-16 40.47h7.51a3.26 3.26 0 0 0 2-.62 3.15 3.15 0 0 0 1.11-1.4l2.45-7.06h15.77l2.45
			7.06a3 3 0 0 0 1.13 1.46 3.51 3.51 0 0 0 2.06.57h7.45L166.69.04h-9.85zm-.74 25s5.36-15.53 5.67-16.66c.32 1.11 5.66 16.66 5.66 16.66H156.1zm26.64
			15.46h.01-.01"/>
		<circle fill="#44c2ef" cx="130.73" cy="35.82" r="4.83"/>
	</symbol>
	<symbol id="gold" viewBox="0 0 102 128">
		<path fill="url(#GOLD-gradient)" fill-rule="evenodd" d="M7.955 120.047h86.09V7.953H7.955v112.094zM0 128h102V0H0v128zm40.642-60.462h-9.595l4.862-14.739 4.733
			14.739zM18.19 81.69h8.188l2.54-7.699h13.796l2.472 7.7h8.49L40.42 44.235h-8.858L18.19 81.69zM52.343 99.85c.463.61.694 1.48.694 2.61 0 1.131-.231
			2.003-.694 2.616-.463.614-1.126.92-1.989.92-.863 0-1.527-.306-1.994-.92-.465-.613-.699-1.485-.699-2.616 0-1.13.234-2 .7-2.61.466-.61 1.13-.915
			1.993-.915.863 0 1.526.304 1.989.915zm-6.318-1.621c-.953 1.193-1.43 2.604-1.43 4.231 0 1.656.477 3.072 1.43 4.248.953 1.176 2.4 1.764 4.34
			1.764s3.386-.588 4.34-1.764c.952-1.176 1.429-2.592 1.429-4.248 0-1.627-.477-3.038-1.43-4.231s-2.399-1.79-4.34-1.79c-1.94 0-3.386.597-4.34
			1.79zm19-15.926c1.419 0 2.656-.187 3.713-.56 1.056-.372 2.15-1.066
			3.282-2.083.372-.322.693-.695.963-1.118.27-.424.44-.678.507-.762v3.912h7.04V53.993h-7.345v15.07c0 1.778-.236 3.21-.708 4.294-.91 1.999-2.597
			2.998-5.059 2.998-1.922 0-3.211-.703-3.869-2.109-.37-.796-.556-1.982-.556-3.558V53.993h-7.422v16.695c0 3.169.397 5.566 1.191 7.192 1.42 2.947 4.174
			4.422 8.263 4.422zm-6.716 25.786h2.952V92.824H58.31v15.264zm12.543-3.066c-.435.622-1.07.932-1.906.932-.835
			0-1.459-.312-1.87-.937-.41-.625-.616-1.458-.616-2.5 0-.967.202-1.776.606-2.429.404-.652 1.038-.979 1.9-.979.567 0 1.064.18 1.492.539.698.594 1.046 1.58
			1.046 2.962 0 .987-.217 1.791-.652 2.412zm.57-6.793a3.587 3.587 0 0 0-1.295-1.247c-.532-.3-1.14-.451-1.823-.451-1.484 0-2.67.552-3.558 1.657-.887
			1.104-1.33 2.62-1.33 4.546 0 1.67.45 3.04 1.35 4.106.902 1.066 2.012 1.6 3.33 1.6.802 0 1.472-.152 2.01-.456.539-.303 1.019-.79
			1.44-1.46v1.564h2.869V92.845h-2.993v5.384zm-35.299 4.215h3.532c-.159.995-.58 1.8-1.264 2.414-.683.614-1.56.92-2.63.92-1.091
			0-2.065-.389-2.921-1.168-.857-.778-1.285-2.104-1.285-3.978 0-1.86.395-3.255 1.186-4.181.791-.927 1.8-1.39 3.03-1.39a4.35 4.35 0 0 1 1.75.341c.94.414
			1.53 1.143 1.772 2.185h3.138c-.173-1.47-.848-2.697-2.025-3.681-1.178-.984-2.736-1.476-4.677-1.476-2.237 0-4.036.746-5.396 2.236-1.36 1.49-2.04
			3.47-2.04 5.94 0 2.442.673 4.367 2.02 5.774 1.29 1.4 2.948 2.101 4.97 2.101 1.23 0 2.266-.257 3.108-.773.49-.295 1.043-.804 1.658-1.526l.32
			1.906h2.113v-8.191h-6.359v2.547zM21.467 28.639l-.493 6.75 4.971-4.594 4.972 4.593-.493-6.75 6.692-1.021-5.585-3.824 3.372-5.867-6.472
			1.981-2.486-6.295-2.485 6.295-6.472-1.981 3.372 5.867-5.585 3.824 6.692 1.022z"/>
	</symbol>
	<symbol id="coa" viewBox="0 0 87.8 64.8">
		<path
			fill="#fff" d="M23.6,55.3c-0.4-0.8-1.2-1-1.2-1c0.5,1.2,0.2,2,0.7,2.6c0.4,0.7,1,0.9,1,0.9C23.5,56.2,24,56,23.6,55.3z M23.7,52.9
			c-1.1-0.1-1.7,0.4-1.7,0.4c0.9,0.1,0.6,0.6,1.9,0.6c0.7,0,1.2-0.3,1.2-0.3S24.8,53.1,23.7,52.9z M23.7,51.4c0.6,0,1.1-0.4,1.1-0.4
			s-0.5-0.5-1.5-0.6c-1,0-1.9,0.6-1.9,0.6C22.3,51.2,22.5,51.5,23.7,51.4z M79.8,34.6c0.3,0,0.5-0.2,0.5-0.5c0-0.3-0.2-0.5-0.5-0.5
			c-0.3,0-0.5,0.2-0.5,0.5C79.4,34.4,79.6,34.6,79.8,34.6z M22.1,49.9c0-0.3-0.2-0.5-0.5-0.5c-0.3,0-0.5,0.2-0.5,0.5s0.2,0.5,0.5,0.5
			C21.9,50.4,22.1,50.2,22.1,49.9z M78.5,33.7c-0.3,0-0.5,0.2-0.5,0.5s0.2,0.5,0.5,0.5c0.3,0,0.5-0.2,0.5-0.5S78.8,33.7,78.5,33.7z
			M19.5,55.5c-0.4,0.5-0.5,1-0.5,1s0.7,0,1.4-0.6c0.7-0.7,0.9-1.7,0.9-1.7C20.6,54.7,20.3,54.6,19.5,55.5z M20.1,53.5
			c0.3,0,0.5-0.2,0.5-0.5c0-0.3-0.2-0.5-0.5-0.5c-0.3,0-0.5,0.2-0.5,0.5C19.7,53.3,19.9,53.5,20.1,53.5z M75,22.6
			c-0.5,0.7-0.6,1.4-0.6,1.4c1.4-1.2,1.7-0.8,2.4-1.5c0.6-0.8,0.6-1.6,0.6-1.6C76.4,21.8,75.6,21.9,75,22.6z M19.6,54.2
			c0-0.3-0.2-0.5-0.5-0.5c-0.3,0-0.5,0.2-0.5,0.5c0,0.3,0.2,0.5,0.5,0.5C19.4,54.7,19.6,54.5,19.6,54.2z M74.4,20.4
			c-0.3,0-0.5,0.2-0.5,0.5s0.2,0.5,0.5,0.5c0.3,0,0.5-0.2,0.5-0.5S74.7,20.4,74.4,20.4z M18.1,48.2c0-0.3-0.2-0.5-0.5-0.5
			c-0.3,0-0.5,0.2-0.5,0.5s0.2,0.5,0.5,0.5C17.9,48.7,18.1,48.4,18.1,48.2z M76.9,18.9c0.3,0,0.5-0.2,0.5-0.5S77.2,18,76.9,18
			c-0.3,0-0.5,0.2-0.5,0.5S76.7,18.9,76.9,18.9z M77.8,24.6c0,0.3,0.2,0.5,0.5,0.5c0.3,0,0.5-0.2,0.5-0.5c0-0.3-0.2-0.5-0.5-0.5
			C78,24.2,77.8,24.4,77.8,24.6z M19.1,52.8c0-0.3-0.2-0.5-0.5-0.5s-0.5,0.2-0.5,0.5c0,0.3,0.2,0.5,0.5,0.5S19.1,53.1,19.1,52.8z
			M19.4,47.8c0-0.3-0.2-0.5-0.5-0.5s-0.5,0.2-0.5,0.5c0,0.3,0.2,0.5,0.5,0.5S19.4,48,19.4,47.8z M76.9,24.3c0.8-0.2,1.1-0.9,2.3-1.4
			c0,0-0.7-0.4-1.5-0.1c-0.9,0.2-0.7,0.7-2.1,1.4C75.6,24.2,76.1,24.5,76.9,24.3z M80.4,33.2c0.3,0,0.5-0.2,0.5-0.5
			c0-0.3-0.2-0.5-0.5-0.5c-0.3,0-0.5,0.2-0.5,0.5C79.9,32.9,80.1,33.2,80.4,33.2z M18.3,49.3c0,0.3,0.2,0.5,0.5,0.5
			c0.3,0,0.5-0.2,0.5-0.5c0-0.3-0.2-0.5-0.5-0.5C18.5,48.9,18.3,49.1,18.3,49.3z M68.8,47.3c-0.3,0-0.5,0.2-0.5,0.5
			c0,0.3,0.2,0.5,0.5,0.5s0.5-0.2,0.5-0.5C69.2,47.5,69,47.3,68.8,47.3z M68.1,53.1c0-0.3-0.2-0.5-0.5-0.5c-0.3,0-0.5,0.2-0.5,0.5
			c0,0.3,0.2,0.5,0.5,0.5C67.9,53.5,68.1,53.3,68.1,53.1z M79.1,30.3c0,0-0.6,0-1.2,0.6c-0.6,0.5-0.6,1.3-1.4,2.3c0,0,0.8,0,1.4-0.6
			C78.6,31.9,78.2,31.6,79.1,30.3z M77.9,35.3c0.9,0.3,0.9,0.8,2.2,1.1c0.7,0.2,1.3,0.1,1.3,0.1s-0.3-0.7-1.4-1.2
			C79,34.9,77.9,35.3,77.9,35.3z M68.6,53.8c-0.3,0-0.5,0.2-0.5,0.5c0,0.3,0.2,0.5,0.5,0.5c0.3,0,0.5-0.2,0.5-0.5
			C69,54,68.8,53.8,68.6,53.8z M81.5,34.1c0.3,0,0.5-0.2,0.5-0.5c0-0.3-0.2-0.5-0.5-0.5c-0.3,0-0.5,0.2-0.5,0.5
			C81.1,33.9,81.3,34.1,81.5,34.1z M66.5,54.1c0,0,0.1,1,0.9,1.7c0.7,0.7,1.4,0.6,1.4,0.6s-0.1-0.6-0.5-1
			C67.5,54.6,67.1,54.7,66.5,54.1z M76.9,20.4c0.3,0,0.5-0.2,0.5-0.5c0-0.3-0.2-0.5-0.5-0.5c-0.3,0-0.5,0.2-0.5,0.5
			C76.4,20.2,76.6,20.4,76.9,20.4z M70.1,47.7c-0.3,0-0.5,0.2-0.5,0.5s0.2,0.5,0.5,0.5c0.3,0,0.5-0.2,0.5-0.5S70.4,47.7,70.1,47.7z
			M70.8,51.3c-0.9-0.7-2.1-0.6-2.1-0.6c0.8,0.6,0.7,1,1.9,1.7c0.6,0.3,1.3,0.4,1.3,0.4S71.7,52,70.8,51.3z M68.5,49.3
			c0,0.3,0.2,0.5,0.5,0.5s0.5-0.2,0.5-0.5c0-0.3-0.2-0.5-0.5-0.5S68.5,49.1,68.5,49.3z M69.1,52.4c-0.3,0-0.5,0.2-0.5,0.5
			c0,0.3,0.2,0.5,0.5,0.5s0.5-0.2,0.5-0.5C69.5,52.6,69.3,52.4,69.1,52.4z M78.9,32.5c-0.3,0-0.5,0.2-0.5,0.5c0,0.3,0.2,0.5,0.5,0.5
			c0.3,0,0.5-0.2,0.5-0.5C79.4,32.7,79.2,32.5,78.9,32.5z M76.8,33.9c0,0.3,0.2,0.5,0.5,0.5s0.5-0.2,0.5-0.5s-0.2-0.5-0.5-0.5
			S76.8,33.7,76.8,33.9z M66.1,49.5c-0.3,0-0.5,0.2-0.5,0.5s0.2,0.5,0.5,0.5c0.3,0,0.5-0.2,0.5-0.5S66.4,49.5,66.1,49.5z M64,52.9
			c-1.1,0.1-1.5,0.7-1.5,0.7s0.6,0.3,1.2,0.3c1.3,0,1-0.5,1.9-0.6C65.7,53.3,65.1,52.8,64,52.9z M64.4,50.5c-1,0-1.5,0.6-1.5,0.6
			s0.5,0.3,1.1,0.4c1.2,0.1,1.4-0.3,2.2-0.3C66.3,51.1,65.4,50.5,64.4,50.5z M76.7,26.9c0-0.3-0.2-0.5-0.5-0.5c-0.3,0-0.5,0.2-0.5,0.5
			c0,0.3,0.2,0.5,0.5,0.5C76.5,27.4,76.7,27.1,76.7,26.9z M64.2,55.3c-0.4,0.8,0,1-0.5,2.5c0,0,0.6-0.2,1-0.9c0.4-0.7,0.2-1.4,0.7-2.6
			C65.3,54.2,64.6,54.5,64.2,55.3z M73.6,33.6c0.9,0,0.8-0.5,2.4-0.9c0,0-0.5-0.4-1.3-0.4c-0.8,0-1.3,0.6-2.6,0.8
			C72.2,33.1,72.8,33.6,73.6,33.6z M75.8,26c0-0.3-0.2-0.5-0.5-0.5s-0.5,0.2-0.5,0.5c0,0.3,0.2,0.5,0.5,0.5S75.8,26.2,75.8,26z
			M74.5,26.1c0-0.3-0.2-0.5-0.5-0.5s-0.5,0.2-0.5,0.5c0,0.3,0.2,0.5,0.5,0.5S74.5,26.4,74.5,26.1z M74.6,27.3c0,0.3,0.2,0.5,0.5,0.5
			s0.5-0.2,0.5-0.5c0-0.3-0.2-0.5-0.5-0.5S74.6,27,74.6,27.3z M12.3,27.3c0,0.3,0.2,0.5,0.5,0.5c0.3,0,0.5-0.2,0.5-0.5
			c0-0.3-0.2-0.5-0.5-0.5C12.5,26.8,12.3,27,12.3,27.3z M10.9,19.5c-0.3,0-0.5,0.2-0.5,0.5c0,0.3,0.2,0.5,0.5,0.5
			c0.3,0,0.5-0.2,0.5-0.5C11.3,19.7,11.1,19.5,10.9,19.5z M9,24.6c0,0.3,0.2,0.5,0.5,0.5c0.3,0,0.5-0.2,0.5-0.5c0-0.3-0.2-0.5-0.5-0.5
			C9.2,24.2,9,24.4,9,24.6z M12.1,21.4c0.3,0,0.5-0.2,0.5-0.5c0-0.3-0.2-0.5-0.5-0.5c-0.3,0-0.5,0.2-0.5,0.5
			C11.7,21.2,11.9,21.4,12.1,21.4z M12.2,24.2c-1.4-0.7-1.3-1.2-2.1-1.4c-0.9-0.2-1.5,0.1-1.5,0.1c1.2,0.5,1.6,1.2,2.3,1.4
			C11.6,24.5,12.2,24.2,12.2,24.2z M13.3,24c0,0,0-0.6-0.6-1.4c-0.5-0.7-1.4-0.8-2.4-1.8c0,0,0,0.8,0.6,1.6S12,22.8,13.3,24z
			M10.8,18.9c0.3,0,0.5-0.2,0.5-0.5S11.1,18,10.8,18c-0.3,0-0.5,0.2-0.5,0.5S10.6,18.9,10.8,18.9z M12.2,19.9c0.3,0,0.5-0.2,0.5-0.5
			c0-0.3-0.2-0.5-0.5-0.5c-0.3,0-0.5,0.2-0.5,0.5C11.7,19.7,11.9,19.9,12.2,19.9z M13.3,20.4c-0.3,0-0.5,0.2-0.5,0.5s0.2,0.5,0.5,0.5
			c0.3,0,0.5-0.2,0.5-0.5S13.6,20.4,13.3,20.4z M7.6,36.4C8.9,36,9,35.6,9.9,35.3c0,0-1.1-0.4-2.2,0c-1,0.4-1.4,1.2-1.4,1.2
			S7,36.6,7.6,36.4z M12.2,18.2c0.3,0.7,0.8,1,0.8,1c-0.2-1.5,0.2-1.6,0-2.5c-0.3-0.8-1-1.1-1-1.1C12.2,16.8,11.9,17.4,12.2,18.2z
			M11.5,26.4c-0.3,0-0.5,0.2-0.5,0.5c0,0.3,0.2,0.5,0.5,0.5c0.3,0,0.5-0.2,0.5-0.5C12,26.6,11.8,26.4,11.5,26.4z M10,33.9
			c0,0.3,0.2,0.5,0.5,0.5c0.3,0,0.5-0.2,0.5-0.5s-0.2-0.5-0.5-0.5C10.2,33.5,10,33.7,10,33.9z M8.8,34.2c0,0.3,0.2,0.5,0.5,0.5
			c0.3,0,0.5-0.2,0.5-0.5s-0.2-0.5-0.5-0.5C9,33.7,8.8,33.9,8.8,34.2z M7.4,33.2c0.3,0,0.5-0.2,0.5-0.5c0-0.3-0.2-0.5-0.5-0.5
			s-0.5,0.2-0.5,0.5C6.9,32.9,7.1,33.2,7.4,33.2z M14.1,26.1c0-0.3-0.2-0.5-0.5-0.5c-0.3,0-0.5,0.2-0.5,0.5c0,0.3,0.2,0.5,0.5,0.5
			C13.9,26.6,14.1,26.4,14.1,26.1z M9.8,30.8c-0.6-0.5-1.2-0.6-1.2-0.6c0.9,1.3,0.5,1.7,1.2,2.3c0.6,0.6,1.4,0.6,1.4,0.6
			C10.4,32.1,10.4,31.4,9.8,30.8z M8.4,33c0,0.3,0.2,0.5,0.5,0.5c0.3,0,0.5-0.2,0.5-0.5c0-0.3-0.2-0.5-0.5-0.5
			C8.6,32.5,8.4,32.7,8.4,33z M14.1,33.6c0.9,0,1.5-0.5,1.5-0.5c-1.3-0.2-1.8-0.8-2.6-0.8c-0.8,0-1.3,0.4-1.3,0.4
			C13.3,33,13.2,33.5,14.1,33.6z M12.4,25.5c-0.3,0-0.5,0.2-0.5,0.5c0,0.3,0.2,0.5,0.5,0.5c0.3,0,0.5-0.2,0.5-0.5
			C12.9,25.7,12.7,25.5,12.4,25.5z M7.9,33.7c-0.3,0-0.5,0.2-0.5,0.5c0,0.3,0.2,0.5,0.5,0.5c0.3,0,0.5-0.2,0.5-0.5
			C8.4,33.9,8.2,33.7,7.9,33.7z M6.2,34.1c0.3,0,0.5-0.2,0.5-0.5c0-0.3-0.2-0.5-0.5-0.5c-0.3,0-0.5,0.2-0.5,0.5
			C5.8,33.9,6,34.1,6.2,34.1z M42.2,6.5L42,9l1.9-1.7L45.7,9l-0.2-2.5L48,6.1l-2.1-1.4l1.3-2.2l-2.4,0.7l-0.9-2.4l-0.9,2.4l-2.4-0.7
			l1.3,2.2l-2.1,1.4L42.2,6.5z M75.6,20.5c-0.3,0-0.5,0.2-0.5,0.5c0,0.3,0.2,0.5,0.5,0.5c0.3,0,0.5-0.2,0.5-0.5
			C76.1,20.7,75.9,20.5,75.6,20.5z M5.7,45.4c-0.3,0-0.5,0.2-0.5,0.5s0.2,0.5,0.5,0.5c0.3,0,0.5-0.2,0.5-0.5S6,45.4,5.7,45.4z
			M6.4,46.8c-0.3,0-0.5,0.2-0.5,0.5c0,0.3,0.2,0.5,0.5,0.5s0.5-0.2,0.5-0.5C6.8,47,6.6,46.8,6.4,46.8z M75.1,19.5
			c0,0.3,0.2,0.5,0.5,0.5c0.3,0,0.5-0.2,0.5-0.5c0-0.3-0.2-0.5-0.5-0.5C75.3,19,75.1,19.2,75.1,19.5z M74.8,19.2c0,0,0.5-0.3,0.8-1
			c0.3-0.7-0.1-1.4,0.2-2.6c0,0-0.7,0.3-1,1.1C74.5,17.5,75,17.6,74.8,19.2z M11.3,48.9c0-0.3-0.2-0.5-0.5-0.5c-0.3,0-0.5,0.2-0.5,0.5
			c0,0.3,0.2,0.5,0.5,0.5C11.1,49.3,11.3,49.1,11.3,48.9z M12.6,48.4c0-0.3-0.2-0.5-0.5-0.5c-0.3,0-0.5,0.2-0.5,0.5
			c0,0.3,0.2,0.5,0.5,0.5C12.4,48.8,12.6,48.6,12.6,48.4z M19.1,50.7c0,0-1.2-0.1-2.1,0.6c-0.9,0.7-1,1.5-1,1.5s0.7,0,1.3-0.4
			C18.4,51.7,18.3,51.3,19.1,50.7z M74.1,19.9c0.3,0,0.5-0.2,0.5-0.5S74.3,19,74.1,19s-0.5,0.2-0.5,0.5S73.8,19.9,74.1,19.9z
			M12.2,49.2c-0.7,0.5-0.4,0.9-1.5,2.1c0,0,0.6,0.1,1.3-0.4c0.7-0.4,0.8-1.2,1.7-2.1C13.7,48.8,12.9,48.7,12.2,49.2z M70.1,49.3
			c0,0.3,0.2,0.5,0.5,0.5s0.5-0.2,0.5-0.5c0-0.3-0.2-0.5-0.5-0.5S70.1,49.1,70.1,49.3z M13.7,19.9c0.3,0,0.5-0.2,0.5-0.5
			S13.9,19,13.7,19c-0.3,0-0.5,0.2-0.5,0.5S13.4,19.9,13.7,19.9z M8.5,46.1c0.7,0.5,1.5,0.4,1.5,0.4c-0.9-0.9-1-1.7-1.7-2.1
			C7.7,44,7.1,44,7.1,44C8.2,45.2,7.8,45.6,8.5,46.1z M4.7,46.1c0-0.3-0.2-0.5-0.5-0.5s-0.5,0.2-0.5,0.5c0,0.3,0.2,0.5,0.5,0.5
			S4.7,46.3,4.7,46.1z M6.8,46.2c0,0.3,0.2,0.5,0.5,0.5c0.3,0,0.5-0.2,0.5-0.5c0-0.3-0.2-0.5-0.5-0.5C7,45.7,6.8,45.9,6.8,46.2z
			M5,46.8c-0.3,0-0.5,0.2-0.5,0.5c0,0.3,0.2,0.5,0.5,0.5c0.3,0,0.5-0.2,0.5-0.5C5.5,47,5.3,46.8,5,46.8z M16.8,25.6
			c0.3,0,0.5-0.2,0.5-0.5c0-0.3-0.2-0.5-0.5-0.5c-0.3,0-0.5,0.2-0.5,0.5C16.3,25.4,16.5,25.6,16.8,25.6z M16.7,49.3
			c0,0.3,0.2,0.5,0.5,0.5c0.3,0,0.5-0.2,0.5-0.5c0-0.3-0.2-0.5-0.5-0.5C16.9,48.9,16.7,49.1,16.7,49.3z M39.9,11.6h7.9
			c0.4,0,0.7-0.3,0.7-0.7c0-0.4-0.3-0.7-0.7-0.7h-7.9c-0.2,0-0.4,0.1-0.5,0.2c-0.1,0.1-0.2,0.3-0.2,0.5c0,0.2,0.1,0.4,0.2,0.5
			C39.5,11.5,39.7,11.6,39.9,11.6z M47.8,10.4c0.2,0,0.4,0.2,0.4,0.4c0,0.2-0.1,0.3-0.3,0.4l-0.8-0.8H47.8z M45.4,10.4l0.9,0.9H45
			l-0.9-0.9H45.4z M42.2,10.4l0.9,0.9h-1.3l-0.9-0.9H42.2z M17.7,25.1c0,0.3,0.2,0.5,0.5,0.5c0.3,0,0.5-0.2,0.5-0.5s-0.2-0.5-0.5-0.5
			C17.9,24.7,17.7,24.9,17.7,25.1z M17.7,24.2c0.3,0,0.5-0.2,0.5-0.5s-0.2-0.5-0.5-0.5c-0.3,0-0.5,0.2-0.5,0.5S17.5,24.2,17.7,24.2z
			M43.7,36.4c0,0.1,0.1,0.2,0.2,0.2c0.1,0,0.2-0.1,0.2-0.2c0-0.1-0.2-0.4-0.2-0.4S43.7,36.3,43.7,36.4z M62.5,42.8
			c0,0.3,0.2,0.5,0.5,0.5s0.5-0.2,0.5-0.5c0-0.3-0.2-0.5-0.5-0.5S62.5,42.6,62.5,42.8z M67.5,45.2c0,0.3,0.2,0.5,0.5,0.5
			c0.3,0,0.5-0.2,0.5-0.5c0-0.3-0.2-0.5-0.5-0.5C67.7,44.7,67.5,44.9,67.5,45.2z M55.1,45.8c0.1-1.1-0.6-2.1-0.6-2.1
			c-0.1,1-0.5,1.1-0.5,2.5c0,0.7,0.3,1.3,0.3,1.3S55,46.9,55.1,45.8z M69.4,44.6c-0.3,0-0.5,0.2-0.5,0.5c0,0.3,0.2,0.5,0.5,0.5
			c0.3,0,0.5-0.2,0.5-0.5C69.8,44.8,69.6,44.6,69.4,44.6z M68.7,43.7c0-0.3-0.2-0.5-0.5-0.5c-0.3,0-0.5,0.2-0.5,0.5
			c0,0.3,0.2,0.5,0.5,0.5C68.5,44.2,68.7,44,68.7,43.7z M18,43.1c-0.3,0-0.5,0.2-0.5,0.5c0,0.3,0.2,0.5,0.5,0.5s0.5-0.2,0.5-0.5
			C18.4,43.3,18.2,43.1,18,43.1z M70.2,43.6c0-0.3-0.2-0.5-0.5-0.5s-0.5,0.2-0.5,0.5c0,0.3,0.2,0.5,0.5,0.5S70.2,43.8,70.2,43.6z
			M17.9,45c0,0.3,0.2,0.5,0.5,0.5s0.5-0.2,0.5-0.5c0-0.3-0.2-0.5-0.5-0.5S17.9,44.8,17.9,45z M19.5,43.3c-0.3,0-0.5,0.2-0.5,0.5
			c0,0.3,0.2,0.5,0.5,0.5c0.3,0,0.5-0.2,0.5-0.5C20,43.5,19.7,43.3,19.5,43.3z M12.8,46.5c0.8,0.3,1.5,0.1,1.5,0.1
			c-1.1-0.7-1.4-1.4-2.1-1.7c-0.8-0.3-1.3-0.1-1.3-0.1C12.2,45.7,12,46.1,12.8,46.5z M32.6,45.8c0.1,1.1,0.7,1.6,0.7,1.6
			s0.3-0.6,0.3-1.3c0-1.3-0.4-1.5-0.5-2.5C33.2,43.7,32.5,44.7,32.6,45.8z M11.1,46.6c0,0.3,0.2,0.5,0.5,0.5c0.3,0,0.5-0.2,0.5-0.5
			c0-0.3-0.2-0.5-0.5-0.5C11.3,46.1,11.1,46.3,11.1,46.6z M56.2,28.4c0,0-0.6,0.1-1.1,0.6c-0.5,0.6-0.1,0.8-0.8,1.9
			c0,0,0.5-0.1,0.9-0.6C55.7,30,55.6,29.3,56.2,28.4z M54.6,32.5c0.3,0,0.5-0.2,0.5-0.5c0-0.3-0.2-0.5-0.5-0.5c-0.3,0-0.5,0.2-0.5,0.5
			C54.2,32.3,54.4,32.5,54.6,32.5z M55.6,30.8c-0.3,0-0.5,0.2-0.5,0.5s0.2,0.5,0.5,0.5c0.3,0,0.5-0.2,0.5-0.5S55.8,30.8,55.6,30.8z
			M43.4,53.5l0.8,0l0-1l0.4,0l0.5,1.1l1,0l-0.6-1.1c0.3-0.1,0.7-0.4,0.7-0.9c0-0.6-0.4-1-1.1-1.1l-1.6,0L43.4,53.5z M44.3,51.1l0.7,0
			c0.2,0,0.4,0.1,0.4,0.4c0,0.2-0.2,0.3-0.4,0.3l-0.7,0L44.3,51.1z M33.4,31c-0.6-1.1-0.3-1.4-0.8-1.9c-0.5-0.6-1.1-0.6-1.1-0.6
			c0.6,0.9,0.5,1.5,0.9,2C33,30.9,33.4,31,33.4,31z M75.8,46.6c0,0.3,0.2,0.5,0.5,0.5c0.3,0,0.5-0.2,0.5-0.5c0-0.3-0.2-0.5-0.5-0.5
			C76,46.1,75.8,46.3,75.8,46.6z M47.6,53.3l1.3,0.2l0.1,0.5l0.9,0.1l-0.8-3.2l-1-0.1l-1.6,2.9l0.9,0.1L47.6,53.3z M48.5,51.5l0.3,1.3
			l-0.9-0.1L48.5,51.5z M75.6,44.9c-0.8,0.3-1,1-2.1,1.7c0,0,0.7,0.3,1.5-0.1c0.8-0.3,0.6-0.8,1.9-1.7C76.9,44.8,76.3,44.6,75.6,44.9z
			M33.2,31.5c-0.3,0-0.5,0.2-0.5,0.5c0,0.3,0.2,0.5,0.5,0.5c0.3,0,0.5-0.2,0.5-0.5C33.7,31.8,33.4,31.5,33.2,31.5z M32.2,30.8
			c-0.3,0-0.5,0.2-0.5,0.5s0.2,0.5,0.5,0.5c0.3,0,0.5-0.2,0.5-0.5S32.5,30.8,32.2,30.8z M84.4,35.6c-0.9,0-1.7,0.8-1.7,1.7
			c0,0.8,0.6,1.4,1.4,1.4c0.2,0,0.3-0.1,0.3-0.3c0-0.2-0.1-0.3-0.3-0.3c-0.4,0-0.8-0.3-0.8-0.8c0-0.6,0.5-1,1-1c0.8,0,1.4,0.6,1.4,1.4
			c0,0.9-0.6,2.3-3,2.3H52.3c-2,0-3.7,0.7-4.8,2.1c-0.7,0.8-1.1,1.8-1.2,2.7c-0.3,0.3-0.5,0.6-0.8,0.9c-0.2,0.4-0.4,0.8-0.6,1.1
			c0-0.2,0.1-0.4,0.1-0.5c0.3-1.6,0.8-3.1,1.7-4.6c0.9-1.4,2-2.7,3.3-3.9c0.1,0,0.1-0.1,0.2-0.1c0.3-0.2,0.8-0.5,1.2-0.8
			c0.5-0.3,1-0.6,1.6-1c0.6-0.3,1.2-0.7,1.9-1.1c0.7-0.3,1.5-0.7,2.3-1c0.4-0.1,0.8-0.3,1.2-0.4c0.2-0.1,0.4-0.1,0.6-0.2l0.7-0.2
			c0.4-0.1,0.9-0.2,1.3-0.3c-0.6,1.6-1.1,3.2-1.8,4.8c-0.2,0.5-0.6,0.9-1.1,0.9c-0.9,0.1-2.3-0.2-2.5,1.1c1.3,0,2.7,0,4,0
			c0.7-0.6,0.8-1.7,1.2-2.5c0.6-1.5,1.1-3,1.8-4.5c0.3,0,0.6-0.1,0.9-0.1c0,0,0.1,0,0.1,0c0,0,0.2,0,0.4,0c0.1,0,0.3,0,0.5,0
			c0.2,0,0.4,0.1,0.6,0.1c0.1,0,0.3,0.1,0.4,0.1c0,1.6,0,3.3-0.1,4.9c-0.1,1-1.2,0.8-1.9,0.9c-0.6-0.1-1.3,0.3-1.4,1c1.3,0,2.7,0,4,0
			c0.5-0.1,0.6-0.7,0.6-1.2c0-1.6,0-3.3,0.1-4.9c0.1,0.1,0.2,0.2,0.4,0.3c0.2,0.2,0.4,0.4,0.6,0.7c0.2,0.2,0.4,0.5,0.6,0.7
			c0.2,0.2,0.4,0.5,0.7,0.7c0.2,0.2,0.4,0.4,0.7,0.5c0.7,0.7,0.6,0.9,1.3,1.2c0.8,0.3,1.7,0.1,1.7,0.1s-0.4-0.6-1.4-1
			c-0.8-0.3-1.1-0.2-1.7-0.4c-0.2-0.1-0.4-0.3-0.6-0.5c-0.2-0.2-0.4-0.4-0.6-0.7c-0.2-0.2-0.4-0.5-0.6-0.7c-0.2-0.3-0.4-0.5-0.6-0.7
			c-0.2-0.2-0.4-0.4-0.6-0.6c0-0.1,0-0.2,0-0.2c0.3,0.1,0.7,0.1,1,0.2c0.8,0.2,1.6,0.4,2.4,0.7c0.8,0.2,1.5,0.5,2.1,0.7
			c0.7,0.2,1.3,0.4,1.8,0.5c0.4,0.1,0.7,0.1,1,0.2c1.9,0.6,1.4,1.8,2.6,2.3c1.2,0.6,2.1,0.4,2.1,0.4c-1.8-1.1-1.9-2-3-2.5
			c-0.1,0-0.2-0.1-0.3-0.1c0.2,0,0.3,0,0.3,0s-0.2,0-0.4,0c-0.6-0.2-1.1-0.2-1.3-0.2c-0.3-0.1-0.6-0.1-0.9-0.2
			c-0.5-0.2-1.1-0.3-1.8-0.6c-0.7-0.2-1.4-0.5-2.1-0.8c-0.4-0.1-0.8-0.3-1.2-0.4c-0.4-0.1-0.8-0.2-1.2-0.4c-0.3-0.1-0.7-0.2-1.1-0.2
			c0.1-0.8,0.2-1.6,0.1-2.5c-0.1-0.2-0.2-0.4-0.2-0.6c0.1,0,0.2-0.1,0.3-0.1c1.1-0.5,2.1-1,3-1.5c0.1,0,0.3,0.1,0.4,0.1
			c0.6,0.2,1.1,0.7,1.8,0.9c0.1-0.8,0-1.6-0.1-2.3c0,0,0.1-0.1,0.2-0.1c0.1-0.1,0.3-0.2,0.5-0.3c0.2-0.1,0.5-0.2,0.7-0.4
			c0.3-0.1,0.6-0.2,0.9-0.3c0.3-0.1,0.6-0.1,1-0.1c0,0,0,0,0,0c1.1,0.3,1.2,1.3,2.3,1.4c1.4,0.2,2.2-0.2,2.2-0.2
			c-2.1-0.6-2.4-1.5-3.7-1.6c-0.7-0.1-1.3,0-1.7,0.1c0,0-0.1,0-0.1,0c-0.3,0-0.7,0.1-1,0.2c-0.3,0.1-0.5,0.2-0.7,0.2
			c0.2-0.3,0.3-0.6,0.4-0.9c0.1-0.3,0.2-0.7,0.2-1.2c0.1-1.3-0.8-1.8-1-3.9c0,0-0.6,0.8-0.6,2.1c0,1.2,1.2,1.4,1,3.1
			c-0.1,0.2-0.3,0.5-0.6,0.8c-0.1,0.1-0.2,0.2-0.2,0.3c-0.9-3.5-3.8-6.5-7.2-6.9c-2.3-0.5-4.5,0.4-6.8,0.5c-1.1,0.1-2.5-0.8-2.4-2.2
			c0.2-2,1-3.8,1.3-5.8c0.1-0.6,0-1.4-0.5-1.9c-0.6-0.5-1.7-0.5-2.2,0.3c-0.5,0.7-1.4,0.5-1.9,1.2c0.6,0.4,1.4,0.1,1.9,0.6
			c0.4,0.3,0.6,0.9,0.4,1.5c-0.4,1.8-1.2,3.5-1.8,5.3c0,0,0,0,0,0v-1.9H38.9c0,0,0,0,0,0c0.2-0.1-1.3-1.1-2.7-1
			c-0.8,0-1.2,0.7-1.8,0.7c-0.3,0-0.4-0.2-0.5-0.5c-0.1-0.7-0.2-1.4-0.1-2c0.4-1.2,2-0.7,2.9-1c0.6,0,0.6-0.7,0.7-1.1
			c-0.6-0.5-1.4-0.9-1.8-1.6c-0.2-0.5-0.8-0.6-1.2-0.8c0.3-0.7,0.4-1.5,0.1-2.3c-0.7,0.5-1.4,1.2-1.5,2.1c-0.4-0.9-1.2-1.7-2.1-2.2
			c0,0.7-0.2,1.5,0.1,2.2c0.2,0.5,0.7,0.9,0.9,1.4c-0.2,0.8-0.5,1.6-0.5,2.4c0,0.6-0.5,1.1-0.9,1.6c-1.1,1.2-2.2,2.4-3.3,3.5
			c-1.8,2-4.9,2.6-6.3,5c-1,1.5-1.1,3.4-1,5.2c-0.8-0.4-1.5-0.7-2.2-1.1c-0.6-0.3-1.1-0.7-1.5-1c0-0.1-0.1-0.2-0.2-0.2
			c0,0-0.1,0-0.2-0.1c-0.1-0.1-0.2-0.2-0.3-0.3c-0.2-0.3-0.4-0.5-0.6-0.8c-0.2-1.8,1.1-1.9,1-3.1c0-1.4-0.6-2.1-0.6-2.1
			c-0.2,2.1-1.1,2.7-1,3.9c0,0.5,0.1,0.9,0.2,1.2c0.1,0.3,0.2,0.6,0.4,0.9c-0.2-0.1-0.5-0.2-0.7-0.2c-0.3-0.1-0.7-0.1-1-0.2
			c0,0-0.1,0-0.1,0c-0.4-0.1-0.9-0.2-1.7-0.1c-1.3,0.1-1.7,1.1-3.7,1.6c0,0,0.9,0.4,2.2,0.2c1-0.2,1.1-1.1,2.3-1.4c0,0,0,0,0,0
			c0.3,0,0.6,0,1,0.1c0.3,0.1,0.6,0.2,0.9,0.3c0.3,0.1,0.5,0.2,0.7,0.4c0.2,0.1,0.4,0.2,0.5,0.3c0.1,0.1,0.2,0.1,0.2,0.1l0,0
			c0,0,0,0,0,0c0.1,0,0.2,0,0.3,0c0.4,0.4,0.9,0.8,1.4,1.1c0.7,0.5,1.6,0.9,2.5,1.3c0.1,0.8,0.1,1.7,0.1,2.5c0,0.4,0,0.8,0.1,1.2
			c-0.1,0-0.2,0-0.3,0.1c-0.4,0.1-0.8,0.2-1.2,0.4c-0.4,0.1-0.8,0.3-1.2,0.4c-0.8,0.3-1.5,0.5-2.1,0.8c-0.7,0.2-1.3,0.4-1.8,0.6
			c-0.3,0.1-0.6,0.2-0.9,0.2c-0.3,0-0.8,0-1.3,0.2c-0.3,0-0.4,0-0.4,0s0.1,0,0.3,0c-0.1,0-0.2,0.1-0.3,0.1c-1.2,0.5-1.3,1.4-3,2.5
			c0,0,0.9,0.2,2.1-0.4c1.2-0.5,0.6-1.7,2.6-2.3c0.3,0,0.6-0.1,1-0.2c0.6-0.1,1.2-0.3,1.8-0.5c0.7-0.2,1.4-0.4,2.1-0.7
			c0.8-0.2,1.6-0.5,2.4-0.7c0.1,0,0.1,0,0.2,0c0,0.4,0,0.7-0.1,1.1c-0.1,0.1-0.2,0.2-0.3,0.4c-0.2,0.3-0.4,0.5-0.6,0.7
			c-0.2,0.2-0.4,0.5-0.6,0.7c-0.2,0.2-0.4,0.3-0.6,0.5c-0.6,0.2-0.9,0.1-1.7,0.4c-0.9,0.4-1.4,1-1.4,1s0.9,0.3,1.7-0.1
			c0.7-0.3,0.7-0.4,1.3-1.2c0.2-0.1,0.4-0.3,0.7-0.5c0.2-0.2,0.4-0.4,0.7-0.7c0.2-0.2,0.3-0.4,0.5-0.6c-0.1,0.4-0.3,0.9-0.5,1.3
			c-0.2,0.1-0.3,0.2-0.3,0.4c0,0,0,0,0,0c-0.2,0.2-0.4,0.4-0.6,0.6c-2.6,1.6-5.7,1.3-8.6,1.6c-0.4,0-1.2,0.4-0.8,0.9
			c0.4,0.2,0.9,0.2,1.4,0.2c1.9,0,3.7,0,5.6,0c1.6,0,3.2-0.4,4.4-1.4c1.8-1.4,2.5-3.8,4.1-5.4c0.4,0,0.5,0.4,0.7,0.7
			c0.8,1.6,0.2,3.4,0.3,5.1c0,0.6,0.5,1.1,1.1,1c3,0,6,0,8.9,0c-0.3-0.4-0.6-0.9-1.1-1.1c-1.9-0.6-4-0.1-5.9-0.2c-0.5,0-1.1-0.4-1-1
			c0-1.4,0.2-2.8,0.4-4.3l0.6,0.1c0.2,0.1,0.4,0.1,0.6,0.2c0.4,0.1,0.8,0.3,1.2,0.4c0.8,0.3,1.5,0.7,2.3,1c0.7,0.3,1.3,0.7,1.9,1.1
			c0.6,0.3,1.2,0.6,1.6,1c0.5,0.3,0.9,0.6,1.2,0.8c0.1,0,0.1,0.1,0.2,0.1c1.3,1.1,2.4,2.4,3.3,3.9c0.9,1.4,1.4,3,1.7,4.6
			c0,0.2,0.1,0.4,0.1,0.5c-0.2-0.4-0.4-0.7-0.6-1.1c-0.2-0.3-0.5-0.6-0.8-0.9c-0.1-0.9-0.5-1.9-1.2-2.7c-1.1-1.3-2.8-2.1-4.7-2.1
			c0,0,0,0,0,0H5c-2.4,0-3-1.4-3-2.3c0-0.8,0.6-1.4,1.4-1.4c0.6,0,1,0.5,1,1c0,0.4-0.3,0.8-0.8,0.8c-0.2,0-0.3,0.1-0.3,0.3
			c0,0.2,0.1,0.3,0.3,0.3c0.8,0,1.4-0.6,1.4-1.4c0-0.9-0.8-1.7-1.7-1.7c-1.1,0-2,0.9-2,2c0,1.4,1.1,3,3.7,3h30.4c2.3,0,3.6,1,4.3,1.8
			c0.4,0.5,0.7,1,0.8,1.5c-0.2-0.2-0.4-0.4-0.7-0.6c-0.5-0.3-1-0.7-1.5-0.9c-0.3-0.1-0.6-0.3-0.8-0.4c-0.3-0.1-0.6-0.2-0.9-0.3
			c-0.6-0.2-1.2-0.3-1.9-0.4c-0.3-0.1-0.7,0-1-0.1c-0.3,0-0.7-0.1-1,0c-0.7,0-1.3,0-2,0.2c-0.3,0.1-0.7,0.1-1,0.2l-1,0.3
			c-0.1,0-0.3,0.1-0.4,0.1c-0.2-0.3-0.6-0.7-1.3-0.9c-1-0.3-1.1,0.3-3,0c0,0,0.3,0.6,1.2,0.9c0.8,0.3,1.5,0,2.7,0.1
			c-0.4,0.1-0.7,0.3-1.1,0.4c-0.6,0.3-1.2,0.6-1.7,0.9c-0.3,0.2-0.6,0.4-0.9,0.5c-0.2-0.3-0.5-0.6-0.9-0.8c-0.8-0.4-1,0.1-2.6-0.3
			c0,0,0.2,0.6,1,0.9c0.6,0.3,1.3,0.2,2.2,0.4c-0.1,0.1-0.3,0.2-0.4,0.2c-0.6,0.3-1.1,0.6-1.7,0.8c-0.6,0.2-1.1,0.5-1.7,0.6
			c-0.1,0-0.2,0.1-0.3,0.1c-1.4,0.1-3.1-0.6-4.1-1.2c-0.2-0.3-0.6-0.8-1.1-1.1c-0.9-0.5-1.6-0.3-1.6-0.3s0.3,0.5,0.8,0.9
			c0.7,0.5,1.1,0.5,1.5,0.6c0.8,0.5,2.2,1.2,3.5,1.4c-0.1,0-0.2,0.1-0.3,0.1c-1.1,0.3-2.1,0.5-3.1,0.6c-1,0.1-1.9,0.2-2.7,0.2
			c-0.8,0-1.5,0-2.1,0c0,0-0.1,0-0.1,0c-0.2,0-0.5-0.1-0.8,0c-0.6,0-0.9-0.1-0.9-0.1s0.2,0.1,0.6,0.1c-0.2,0-0.4,0.1-0.7,0.1
			c-1.2,0.3-1.5,1.2-3.4,2c0,0,0.9,0.3,2.2-0.1c1.2-0.4,0.9-1.7,3-1.9c0,0,0,0,0.1,0c0.6,0.1,1.3,0.1,2.1,0.1c0.8,0,1.7,0,2.7-0.1
			c1-0.1,2.1-0.3,3.2-0.5c0.3-0.1,0.6-0.1,0.8-0.2c0.3-0.1,0.6-0.2,0.8-0.3c0.5-0.1,1-0.3,1.5-0.5c-1.3,1.4-1.7,3.6-1.2,6.3
			c0,0.1,0.1,0.1,0.2,0.1c0,0,0,0,0,0c0.1,0,0.1-0.1,0.1-0.2c-0.5-2.9,0.1-5.2,1.7-6.5c0.4-0.2,0.8-0.4,1.2-0.5
			c0.6-0.3,1.1-0.6,1.7-0.9c0.1-0.1,0.2-0.1,0.3-0.2c-0.5,0.6-0.7,1.3-0.9,1.9c-0.3,0.7-0.6,1.1-0.7,1.6c-0.1,0.8,0.3,1.2,0.3,1.2
			c0.4-1.5,0.9-1.4,1-2.2c0.1-0.4,0-0.8-0.2-1.1c0.3-0.8,0.7-1.6,1.6-2.1c0.1,0,0.2-0.1,0.3-0.1c0.6-0.2,1.2-0.5,1.8-0.7l0.9-0.3
			c0.3-0.1,0.6-0.1,0.9-0.2c0.6-0.1,1.3-0.1,1.9-0.2c0.1,0,0.3,0,0.4,0c-0.2,0.1-0.3,0.2-0.5,0.3c-1,0.6-1.7,1.5-2,2.6
			c-0.2,0.9-0.1,1.8,0.3,2.6c0.2,0.3,0.4,0.6,0.6,0.8c-0.1,0.4-0.3,0.6-0.3,1.4c0,0.5,0.2,0.9,0.2,0.9s0.4-0.3,0.5-1.1
			c0-0.3,0-0.6-0.1-0.9c0.2,0.2,0.5,0.3,0.8,0.4c0.3,0.1,0.6,0.2,1,0.3c1.1,0.1,1.7-0.4,1.7-0.4s-0.5-0.4-1.2-0.5
			c-0.9-0.2-1.3,0-1.8,0c-0.4-0.3-0.7-0.6-1-1.1c-0.4-0.7-0.5-1.5-0.3-2.3c0.3-1,0.9-1.8,1.8-2.3c0.6-0.4,1.3-0.5,1.9-0.5
			c0.5,0.1,1.1,0.2,1.6,0.4c0.3,0.1,0.6,0.2,0.8,0.3c0.3,0.1,0.5,0.2,0.8,0.4c0.5,0.2,1,0.6,1.4,0.9c0.5,0.3,0.8,0.7,1.2,1
			c0,0,0.1,0.1,0.1,0.1c0,0.1,0,0.3,0,0.4c-0.3,1.7-1.7,2.3-2.9,2.1c-0.5,0-0.9-0.3-1.1-0.6c-0.3-0.4-0.4-0.8-0.4-1.3
			c0.1-0.7,0.7-1.2,1.4-1.2c0.3,0,0.5,0.2,0.7,0.4c0.2,0.2,0.2,0.5,0.2,0.7c0,0.2-0.1,0.4-0.3,0.5c-0.1,0.1-0.3,0.2-0.5,0.2
			c-0.2,0-0.3,0.1-0.4,0.3c0,0.2,0.1,0.3,0.3,0.4c0.4,0,0.7-0.1,1-0.3c0.3-0.2,0.5-0.6,0.5-0.9c0-0.4-0.1-0.9-0.4-1.2
			c-0.3-0.3-0.7-0.6-1.1-0.6c-1.1-0.1-2,0.7-2.2,1.7c-0.1,0.6,0.1,1.2,0.5,1.7c0.4,0.5,1,0.8,1.6,0.9c0.1,0,0.2,0,0.4,0
			c1.4,0,2.8-0.8,3.2-2.5c0.1,0.1,0.2,0.2,0.3,0.3c0.2,0.4,0.5,0.8,0.7,1.2c0.2,0.4,0.3,0.8,0.4,1.1c0.1,0.2,0.1,0.4,0.2,0.5
			c-2.8,0.1-5.3,0.6-7.7,1.2c-1.3,0.3-2.6,0.6-3.8,0.8C30.8,51,30.3,51,29.9,51l0.4-2c0,0,0,0,0,0c0,0,0,0,0,0l0-0.2c0,0,0-0.1,0-0.1
			c0-0.3-0.1-0.6-0.3-0.9c-0.7-0.8-2.1-1.1-3.2-0.6c-0.7,0.3-1.2,0.9-1.4,1.5c-0.1,0.3,0,0.6,0,0.9l0.7,5.4c0.2,0.7,0.7,1.3,1.4,1.5
			c0.4,0.1,1.3,0.4,2.5,0.4c0.7,0,1.5-0.1,2.5-0.3c0.6-0.1,1.2-0.3,1.7-0.4c2.7-0.6,5.1-1.2,8.1-1.3c0,0,0,0,0,0.1
			c-0.1,0.3-0.2,0.5-0.2,0.8c-0.2-0.1-0.4-0.2-0.6-0.2c-0.2-0.1-0.6-0.2-1.1-0.2c-0.5,0-1,0.1-1.4,0.4c-0.6,0.4-0.8,0.9-0.8,1.2
			c-0.2,0.9,0.3,1.7,0.8,2c0.1,0.1,0.2,0.2,0.3,0.2c-0.1,0.1-0.3,0.1-0.4,0.2c-1.7,0.6-3.5,1.1-5.3,1.5l1.1,0.4l-0.9,0.9
			c1.8-0.4,3.7-0.9,5.5-1.5c0.2-0.1,0.4-0.1,0.6-0.2c0,0,0,0.1-0.1,0.1c-0.4,0.6-0.8,1.1-1,1.4c-0.1,0.1-0.2,0.3-0.3,0.3
			c-0.1,0.1-0.1,0.1-0.1,0.1l0,0c0,0,0,0,0,0c-0.3,0.4-0.2,0.9,0.1,1.2c0.4,0.3,0.9,0.2,1.2-0.1c0,0,0,0,0.1-0.1
			c0.1-0.1,0.2-0.2,0.3-0.4c0.3-0.4,0.6-0.9,1-1.6c0.3-0.5,0.6-1.1,1-1.9c0.2-0.1,0.4-0.2,0.6-0.3c-0.4,0.7-0.9,1.6-1.1,2
			c-0.1,0.4-0.1,0.8-0.1,0.8c0,0.2,0.1,0.6,0.4,0.9c0.4,0.4,0.8,0.5,1,0.6c0.2,0.1,0.5,0.1,0.9,0.1l0.2,0c0.3,0,0.5,0,0.7-0.1
			c0.2-0.1,0.7-0.2,1-0.6c0.3-0.4,0.4-0.7,0.4-0.9c0-0.1,0.1-0.4-0.1-0.8c-0.1-0.3-0.6-1.2-1.1-2c0.1,0.1,0.3,0.2,0.6,0.3
			c0.4,0.7,0.7,1.4,1,1.9c0.4,0.7,0.8,1.2,1,1.6c0.1,0.2,0.2,0.3,0.3,0.4c0.1,0.1,0.1,0.1,0.1,0.1c0,0,0,0,0,0
			c0.3,0.4,0.9,0.4,1.2,0.1c0.4-0.3,0.4-0.9,0.1-1.2l0,0c0,0,0,0-0.1-0.1c-0.1-0.1-0.2-0.2-0.3-0.3c-0.2-0.3-0.6-0.8-1-1.4
			c0,0-0.1-0.1-0.1-0.1c0.2,0.1,0.4,0.2,0.7,0.3c1.8,0.6,3.6,1.2,5.5,1.5l-0.9-0.9l1.1-0.4c-1.8-0.4-3.6-0.9-5.3-1.5
			c-0.2-0.1-0.3-0.1-0.4-0.2c0.1-0.1,0.2-0.1,0.3-0.2c0.5-0.4,1-1.1,0.8-2c-0.1-0.3-0.3-0.8-0.8-1.2c-0.5-0.3-1-0.4-1.4-0.4
			c-0.5,0-0.9,0.1-1.1,0.2c-0.3,0.1-0.5,0.2-0.7,0.3c-0.1-0.3-0.2-0.6-0.3-0.8c0,0,0,0,0,0c3,0.1,5.4,0.7,8.1,1.3
			c0.6,0.1,1.1,0.3,1.7,0.4c0.9,0.2,1.7,0.3,2.4,0.3c1.3,0,2.2-0.2,2.5-0.4c0.7-0.2,1.2-0.8,1.4-1.5l0.7-5.2c0.1-0.3,0.2-0.7,0.1-1
			c-0.1-0.6-0.7-1.2-1.4-1.5c-1.1-0.5-2.5-0.2-3.2,0.6c-0.2,0.3-0.3,0.6-0.3,0.9c0,0,0,0,0,0.1l0,0.2c0,0,0,0,0,0c0,0,0,0,0,0l0.4,2
			c-0.4,0-0.9-0.1-1.4-0.1c-1.3-0.2-2.5-0.5-3.8-0.8c-2.4-0.5-4.9-1.1-7.7-1.2c0-0.2,0.1-0.4,0.2-0.5c0.1-0.4,0.3-0.8,0.4-1.1
			c0.2-0.4,0.4-0.8,0.7-1.2c0.1-0.1,0.2-0.2,0.3-0.3c0.4,1.7,1.8,2.5,3.2,2.5c0.1,0,0.2,0,0.4,0c0.6-0.1,1.2-0.4,1.6-0.9
			c0.4-0.5,0.6-1.1,0.5-1.7c-0.1-0.5-0.3-1-0.7-1.3C51,44,50.5,43.8,50,43.9c-0.4,0-0.8,0.3-1.1,0.6c-0.3,0.3-0.4,0.8-0.4,1.2
			c0,0.4,0.2,0.7,0.5,0.9c0.3,0.2,0.6,0.3,1,0.3c0.2,0,0.3-0.2,0.3-0.4c0-0.2-0.2-0.3-0.4-0.3c-0.2,0-0.4,0-0.5-0.2
			c-0.1-0.1-0.2-0.3-0.3-0.5c0-0.3,0-0.5,0.2-0.7c0.2-0.2,0.4-0.3,0.7-0.4c0.3,0,0.7,0.1,1,0.3c0.3,0.2,0.4,0.5,0.5,0.9
			c0,0.5-0.1,0.9-0.4,1.3c-0.3,0.4-0.7,0.6-1.1,0.6c-1.2,0.1-2.6-0.5-2.9-2.1c0-0.1,0-0.2,0-0.4c0,0,0.1-0.1,0.1-0.1
			c0.4-0.3,0.7-0.7,1.2-1c0.5-0.3,0.9-0.6,1.4-0.9c0.3-0.1,0.5-0.2,0.8-0.4c0.3-0.1,0.6-0.2,0.8-0.3c0.5-0.2,1.1-0.3,1.6-0.4
			c1.7,0,3.2,1.1,3.7,2.8c0.4,1.3-0.2,2.7-1.2,3.3c-0.5-0.1-0.9-0.2-1.8,0c-0.7,0.1-1.2,0.5-1.2,0.5s0.6,0.5,1.7,0.4
			c0.3,0,0.6-0.1,0.9-0.2c0.3-0.1,0.6-0.3,0.9-0.5c-0.1,0.2-0.1,0.5-0.1,0.8c0.1,0.8,0.5,1.1,0.5,1.1s0.2-0.4,0.2-0.9
			c0-0.7-0.2-1-0.3-1.4c0.9-0.9,1.2-2.2,0.9-3.4c-0.4-1.3-1.3-2.4-2.5-2.9c0.1,0,0.3,0,0.4,0c0.6,0,1.3,0,1.9,0.2
			c0.3,0.1,0.6,0.1,0.9,0.2l0.9,0.3c0.6,0.1,1.2,0.4,1.8,0.7c0.1,0,0.2,0.1,0.3,0.1c0.8,0.5,1.3,1.3,1.6,2.1c-0.1,0.3-0.2,0.6-0.2,1.1
			c0.1,0.8,0.6,0.7,1,2.2c0,0,0.3-0.5,0.3-1.2c0-0.6-0.4-1-0.7-1.6c-0.1-0.6-0.4-1.3-0.9-1.9c0.1,0.1,0.2,0.1,0.3,0.2
			c0.6,0.3,1.1,0.6,1.7,0.9c0.4,0.2,0.8,0.4,1.2,0.5c1.6,1.3,2.2,3.6,1.7,6.5c0,0.1,0,0.2,0.1,0.2c0,0,0,0,0,0c0.1,0,0.1-0.1,0.2-0.1
			c0.5-2.6,0-4.8-1.2-6.3c0.5,0.2,1,0.4,1.5,0.5c0.3,0.1,0.6,0.2,0.8,0.3c0.3,0.1,0.6,0.1,0.8,0.2c1.1,0.3,2.2,0.4,3.2,0.5
			c1,0.1,1.9,0.1,2.7,0.1c0.8,0,1.5,0,2.1-0.1c0,0,0,0,0.1,0c2.1,0.2,1.7,1.6,3,1.9c1.3,0.4,2.2,0.1,2.2,0.1c-1.9-0.8-2.2-1.7-3.4-2
			c-0.2-0.1-0.5-0.1-0.7-0.1c0.4-0.1,0.6-0.1,0.6-0.1s-0.3,0.1-0.9,0.1c-0.3,0-0.6,0-0.8,0c0,0-0.1,0-0.1,0c-0.6,0-1.3,0-2.1,0
			c-0.8,0-1.7-0.1-2.7-0.2c-1-0.1-2-0.3-3.1-0.6c-0.1,0-0.2-0.1-0.3-0.1c1.4-0.2,2.7-0.9,3.5-1.4c0.4-0.1,0.8-0.1,1.5-0.6
			c0.5-0.4,0.8-0.9,0.8-0.9s-0.7-0.2-1.6,0.3c-0.5,0.3-0.9,0.8-1.1,1.1c-1,0.6-2.7,1.3-4.1,1.2c-0.1,0-0.2-0.1-0.3-0.1
			c-0.6-0.2-1.1-0.4-1.7-0.6c-0.6-0.2-1.1-0.5-1.7-0.8c-0.1-0.1-0.3-0.1-0.4-0.2c1-0.2,1.6,0,2.2-0.4c0.7-0.4,1-0.9,1-0.9
			c-1.6,0.4-1.8-0.1-2.6,0.3c-0.5,0.2-0.8,0.6-0.9,0.8c-0.3-0.2-0.6-0.4-0.9-0.5c-0.6-0.3-1.1-0.7-1.7-0.9c-0.4-0.1-0.7-0.3-1.1-0.4
			c1.2-0.1,1.9,0.2,2.7-0.1c0.9-0.3,1.2-0.9,1.2-0.9c-1.9,0.3-2-0.3-3,0c-0.7,0.2-1.1,0.7-1.3,0.9c-0.1,0-0.3-0.1-0.4-0.1l-1-0.3
			c-0.3-0.1-0.7-0.1-1-0.2c-0.7-0.1-1.3-0.1-2-0.2c-0.3,0-0.7,0-1,0c-0.3,0-0.7,0-1,0.1c-0.6,0.1-1.3,0.2-1.9,0.4
			c-0.3,0.1-0.6,0.2-0.9,0.3c-0.3,0.1-0.6,0.3-0.8,0.4c-0.6,0.2-1.1,0.6-1.5,0.9c-0.3,0.2-0.5,0.4-0.7,0.6c0.2-0.5,0.4-1,0.8-1.5
			c0.7-0.8,2-1.8,4.3-1.8h30.4c2.5,0,3.7-1.5,3.7-3C86.4,36.5,85.5,35.6,84.4,35.6z M69.3,27.4c-0.7,0.4-1.6,0.7-2.4,1.1
			c-0.1,0-0.2,0.1-0.4,0.1c-0.3-0.6-0.6-1.1-0.8-1.7C66.9,26.9,68.1,27.1,69.3,27.4z M40.3,59.7c-0.4,0.2-0.8,0.3-1.2,0.5
			c-1.2,0.4-2.4,0.8-3.7,1.1l0.2-0.2l-0.2-0.1c1.2-0.3,2.4-0.7,3.6-1.1c0.2-0.1,0.3-0.1,0.5-0.2l1.1-0.4
			C40.5,59.5,40.4,59.6,40.3,59.7z M41.1,58.2C41.1,58.3,41.1,58.3,41.1,58.2c-0.2,0-0.3,0.1-0.5,0.1c-0.1,0-0.2,0-0.3,0
			c-0.4,0-0.5-0.1-0.6-0.2c-0.2-0.1-0.4-0.5-0.4-0.8c0-0.2,0.1-0.3,0.3-0.4c0.2-0.2,0.5-0.2,0.7-0.2c0.3,0,0.6,0.1,0.8,0.1
			c0.2,0,0.4,0.1,0.5,0.2C41.5,57.4,41.3,57.9,41.1,58.2z M41.9,56.5c-0.2-0.1-0.4-0.2-0.6-0.2c-0.2,0-0.5-0.1-0.9-0.1
			c-0.4,0-0.7,0.1-1,0.3c-0.3,0.2-0.5,0.5-0.5,0.7c-0.1,0.5,0.2,1,0.5,1.3c0.2,0.2,0.5,0.3,0.9,0.3c0.1,0,0.2,0,0.4,0
			c0.1,0,0.1,0,0.2,0c-0.1,0.1-0.1,0.2-0.2,0.3c-0.9,0-1.2-0.3-1.2-0.3c-0.1,0-0.2-0.1-0.3-0.2c-0.4-0.3-0.8-0.9-0.6-1.5
			c0.1-0.2,0.2-0.6,0.6-0.9c0.3-0.2,0.7-0.3,1.1-0.3c0.4,0,0.8,0.1,1,0.2c0.2,0.1,0.4,0.1,0.6,0.2C42,56.4,41.9,56.5,41.9,56.5z
			M46.6,58.3C46.6,58.3,46.6,58.2,46.6,58.3c-0.2-0.4-0.4-0.8-0.6-1.2c0.2-0.1,0.4-0.2,0.6-0.2c0.2,0,0.5-0.1,0.8-0.1
			c0.2,0,0.5,0,0.7,0.2c0.2,0.1,0.3,0.3,0.3,0.4c0.1,0.3-0.2,0.6-0.4,0.8c-0.1,0.1-0.3,0.2-0.6,0.2c-0.1,0-0.2,0-0.3,0
			C47,58.3,46.8,58.3,46.6,58.3z M48.8,60c1.2,0.4,2.4,0.8,3.6,1.1l-0.2,0.1l0.2,0.2c-1.2-0.3-2.5-0.7-3.7-1.1
			c-0.5-0.2-0.9-0.4-1.3-0.5c-0.1-0.1-0.1-0.3-0.2-0.4l1.2,0.5C48.5,59.8,48.7,59.9,48.8,60z M46.5,56.1c0.2,0,0.6-0.2,1-0.2
			c0.4,0,0.8,0.1,1.1,0.3c0.4,0.3,0.6,0.7,0.6,0.9c0.1,0.7-0.2,1.2-0.6,1.5c-0.1,0.1-0.2,0.1-0.3,0.2c0,0-0.3,0.3-1.3,0.3
			c-0.1-0.1-0.1-0.2-0.2-0.3c0.1,0,0.2,0,0.3,0c0.1,0,0.2,0,0.4,0c0.4,0,0.7-0.1,0.9-0.3c0.3-0.3,0.6-0.8,0.5-1.3
			c-0.1-0.3-0.2-0.5-0.5-0.7c-0.3-0.2-0.6-0.3-1-0.3c-0.4,0-0.7,0.1-0.9,0.1c-0.2,0.1-0.5,0.2-0.7,0.3c0-0.1-0.1-0.2-0.1-0.2
			C46,56.2,46.2,56.1,46.5,56.1z M61.5,31.8c0,0.1-0.1,0.2-0.1,0.4c-0.1,0-0.2,0-0.3,0c-0.5,0.1-0.9,0.2-1.4,0.3L59,32.6
			c-0.2,0.1-0.4,0.1-0.6,0.2c-0.1,0-0.2,0.1-0.3,0.1c0.2-0.1,0.5-0.2,0.8-0.3c0.9-0.4,1.9-0.8,2.8-1.2C61.6,31.5,61.5,31.7,61.5,31.8z
			M64.9,30c0.3,0.6,0.5,1.3,0.6,2c-0.1,0-0.1,0-0.2,0C64.9,32,64.5,32,64.1,32c0,0,0,0,0,0c-0.3,0-0.4,0-0.4,0c0,0,0,0,0,0
			c-0.1,0-0.1,0-0.2,0c-0.2,0-0.4,0-0.6,0c0.1-0.2,0.2-0.3,0.2-0.5c0.1-0.3,0.3-0.6,0.3-0.8C63.9,30.4,64.4,30.2,64.9,30z M63.3,27.7
			c0.5,0.5,0.9,1.1,1.3,1.7c-0.4,0.1-0.7,0.3-1.1,0.4c-0.3-1.3-1-2.6-2.1-3.3C62.1,26.6,62.7,27.1,63.3,27.7z M36.3,16.2
			c0.2,0,0.3,0,0.5,0H36C36.1,16.3,36.2,16.2,36.3,16.2z M35.6,16.9h16.5v13.5c0,1-0.5,1.9-1.4,2.5l-6.9,4.2L37,32.9
			c-0.8-0.5-1.4-1.5-1.4-2.4V16.9z M29.4,32.9c-0.2-0.1-0.4-0.1-0.6-0.2l-0.6-0.1c0,0,0,0,0,0c0-0.1,0-0.1,0-0.2
			c0.3,0.1,0.5,0.2,0.8,0.3c0.3,0.1,0.5,0.2,0.8,0.3C29.6,32.9,29.5,32.9,29.4,32.9z M26,49.3c0-0.1,0-0.2,0-0.4
			c0.1-0.4,0.5-0.8,1-1.1c0.8-0.4,2-0.2,2.5,0.4c0.1,0.2,0.2,0.3,0.2,0.5l0,0c-0.1,0.2-0.3,0.5-0.6,0.6c0,0,0,0-0.1,0l0.2-0.8
			c0-0.1,0-0.2-0.1-0.3c-0.3-0.4-1-0.5-1.5-0.3c-0.4,0.2-0.6,0.4-0.7,0.8c0,0.1,0,0.2,0,0.3c0,0,0,0,0,0l0.1,1.3
			C26.3,50,26,49.4,26,49.3z M29.3,50.1c0,0,0.1,0,0.1-0.1l-0.2,1c-0.6,0-1.1-0.1-1.5-0.3l-0.1-0.7C28.2,50.3,28.8,50.3,29.3,50.1z
			M27.6,49.2c0,0-0.1-0.1-0.1-0.1l0,0c0,0,0-0.1,0-0.1c0-0.1,0.1-0.2,0.3-0.3c0.1,0,0.2-0.1,0.3-0.1c0.1,0,0.3,0,0.4,0.1l-0.2,0.9
			c0,0,0,0,0,0C28,49.5,27.8,49.4,27.6,49.2z M42.5,58.8c0-0.1,0.1-0.2,0.1-0.3c0.1,0,0.1-0.1,0.2-0.1l0.6-0.2l-0.1,0.1l0,0
			c0,0,0,0-0.1,0.1l-0.1,0C43,58.5,42.8,58.6,42.5,58.8z M42.8,58c0-0.1,0-0.1,0.1-0.2c0,0,0.1,0.1,0.1,0.1
			C42.9,57.9,42.9,57.9,42.8,58z M43.9,57.4L43.9,57.4L43.9,57.4c-0.2-0.2-0.4-0.5-0.6-0.8c0.1-0.4,0.2-0.8,0.4-1.3
			c0-0.1,0.1-0.3,0.1-0.4c0,0,0,0,0,0h0.2c0,0,0.1,0,0.1,0c0,0.1,0.1,0.3,0.1,0.4c0.1,0.5,0.2,0.9,0.4,1.3
			C44.3,56.9,44.1,57.1,43.9,57.4z M44.7,57.2c0,0,0,0.1,0,0.1l-0.3,0.2C44.5,57.5,44.6,57.3,44.7,57.2z M43.4,57.6L43,57.3
			c0,0,0-0.1,0.1-0.1C43.2,57.3,43.3,57.4,43.4,57.6z M45.8,61.3c0.1,0.3,0.1,0.6,0,0.6c0,0.1-0.1,0.4-0.3,0.8
			c-0.3,0.3-0.6,0.4-0.8,0.5c-0.2,0-0.4,0-0.7,0l-0.1,0h-0.1c-0.3,0-0.6,0-0.7,0c-0.2-0.1-0.6-0.1-0.9-0.5c-0.2-0.3-0.3-0.6-0.3-0.8
			l0-0.1c0-0.1,0-0.3,0.1-0.5c0.2-0.7,1.5-2.6,1.7-3c0,0,0.1,0,0.1,0.1l-0.3,0.5c-0.5,0.8-1.3,2.1-1.5,2.6c-0.1,0.2-0.1,0.4,0,0.5
			c0,0.2,0.1,0.4,0.3,0.7c0.2,0.3,0.5,0.4,0.8,0.4c0.1,0,0.4,0,0.7,0H44c0.3,0,0.5,0,0.6,0c0.2-0.1,0.5-0.1,0.8-0.4
			c0.2-0.2,0.3-0.5,0.3-0.7c0-0.2,0-0.4,0-0.5c-0.2-0.5-1-1.9-1.5-2.6l-0.3-0.4c0,0,0,0,0,0c0.1,0,0.1,0,0.2-0.1
			C44.8,59.4,45.7,60.8,45.8,61.3z M43.9,59l0.1,0.1c0.4,0.6,1.2,1.9,1.4,2.4c0,0.1,0.1,0.2,0,0.4c0,0.1-0.1,0.3-0.2,0.5
			c-0.2,0.2-0.4,0.3-0.6,0.3c-0.1,0-0.3,0-0.6,0l-0.2,0c-0.1,0-0.4,0-0.5,0c-0.2,0-0.4-0.1-0.6-0.3c-0.2-0.2-0.2-0.4-0.2-0.5
			c0,0,0-0.2,0-0.3c0.2-0.5,1-1.8,1.3-2.4L43.9,59z M44.7,58.4L44.7,58.4c-0.1-0.1-0.1-0.1-0.1-0.1l0,0l-0.1-0.1l0.6,0.2
			c0,0,0.1,0,0.1,0c0,0.1,0.1,0.2,0.1,0.3C45,58.6,44.8,58.5,44.7,58.4z M44.9,57.9C44.9,57.9,44.9,57.9,44.9,57.9
			C44.9,57.9,44.9,57.9,44.9,57.9C44.9,57.9,44.9,57.9,44.9,57.9z M58.3,48.3c0.5-0.6,1.6-0.8,2.5-0.4c0.5,0.2,0.9,0.6,1,1.1
			c0,0.1,0,0.2,0,0.4l0,0c0,0-0.3,0.6-1,1.1l0.1-1.2c0,0,0,0,0,0c0-0.1,0-0.2,0-0.3c-0.1-0.3-0.3-0.6-0.7-0.8
			c-0.5-0.2-1.2-0.1-1.5,0.3c-0.1,0.1-0.1,0.2-0.1,0.3l0.2,0.8c0,0,0,0-0.1,0c-0.3-0.1-0.5-0.4-0.6-0.6l0,0
			C58.1,48.7,58.1,48.5,58.3,48.3z M59.4,49.6C59.4,49.6,59.4,49.6,59.4,49.6l-0.2-0.9c0.2-0.1,0.5-0.1,0.7,0c0.2,0.1,0.3,0.2,0.3,0.3
			c0,0,0,0.1,0,0.1l0,0c0,0,0,0.1-0.1,0.1C60,49.4,59.7,49.5,59.4,49.6z M60.1,50.1L60,50.7c-0.4,0.1-0.9,0.3-1.5,0.3l-0.2-1
			c0,0,0.1,0,0.1,0.1C59,50.3,59.6,50.3,60.1,50.1z M52.4,50.8c1.3,0.3,2.6,0.6,3.9,0.8c0.7,0.1,1.3,0.2,1.9,0.1c0,0,0,0,0,0
			c0,0,0,0,0,0c0.9,0,1.6-0.2,2.1-0.4c0.1,0,0.1,0,0.2-0.1c0.4-0.2,0.7-0.4,1-0.6l-0.6,4.3c-0.1,0.5-0.5,0.9-1,1.1
			c-0.5,0.2-2.2,0.6-4.6,0.1c-0.6-0.1-1.2-0.3-1.7-0.4c-3.1-0.7-5.8-1.4-9.7-1.4h-0.2c-3.8,0-6.5,0.6-9.7,1.4
			c-0.6,0.1-1.1,0.3-1.7,0.4c-2.4,0.6-4.1,0.1-4.6-0.1c-0.5-0.2-0.9-0.6-1-1l-0.6-4.4c0.6,0.5,1.6,1,3.3,1.1c0,0,0,0,0,0c0,0,0,0,0,0
			c0.5,0,1.1,0,1.8-0.1c1.3-0.2,2.5-0.5,3.9-0.8c2.7-0.6,5.4-1.2,8.6-1.2h0C47,49.6,49.8,50.2,52.4,50.8z M43.9,42.2
			c0.4,0.4,0.7,1,0.5,2.2c-0.2,0.6-0.3,1.1-0.4,1.7c0,0.2-0.1,0.4-0.1,0.7c0-0.2-0.1-0.4-0.1-0.7c-0.1-0.6-0.3-1.1-0.4-1.7
			C43.2,43.2,43.4,42.6,43.9,42.2z M44.3,41.9C44.3,41.8,44.4,41.8,44.3,41.9c0.6-0.5,1.3-0.9,1.5-2c0.1-0.2,0.3-0.6,0.3-1.1
			c0-1-0.5-1.5-0.5-1.5s-0.4,0.5-0.4,1.1c-0.1,0.7,0,0.9,0.1,1.2c-0.1,1-0.7,1.4-1.2,1.8c-0.1,0-0.1,0.1-0.2,0.1
			c-0.1,0-0.1-0.1-0.2-0.1c-0.6-0.4-1.1-0.8-1.2-1.8c0.1-0.2,0.2-0.5,0.1-1.2c-0.1-0.6-0.4-1.1-0.4-1.1s-0.5,0.5-0.5,1.5
			c0,0.5,0.2,0.8,0.3,1.1c0.2,1,0.8,1.5,1.4,1.9c0,0,0.1,0,0.1,0.1c-0.3,0.3-0.5,0.6-0.6,1.1c-0.3-0.6-0.6-1.2-0.9-1.8
			c-0.7-1.2-1.7-2.3-2.7-3.3c-0.1-0.9,0.2-1.1,0-1.7c-0.3-0.7-0.9-1-0.9-1c0.2,1,0,1.5,0.1,2.1c0,0-0.1-0.1-0.1-0.1
			c-0.7-0.6-1.4-1.1-2.1-1.6c-0.4-0.2-0.7-0.5-1.1-0.7c-0.4-0.2-0.8-0.4-1.2-0.7c-0.8-0.5-1.5-0.8-2.3-1.2c-0.8-0.4-1.6-0.7-2.3-1.1
			c-0.3-0.1-0.6-0.3-0.9-0.4c0.4-1.7,0.9-3.5,0.3-5.3c0.7-0.9,1.5-1.7,2.2-2.6c-0.5-0.7-1.2-1.6-1-2.5c0.7,2,2.9,2.9,3.8,4.7
			c0.4,0.6-0.2,1.2-0.8,1.3c0.5,0.4,1.4,0.4,1.8-0.2c0.4-0.7,0.2-1.6-0.2-2.2c-0.6-1-1.3-2-2-3.1c0.6-1,1.5-2.1,1.7-3.3
			c0.1-0.4,0.3-0.9,0.8-1.5v13.5c0,1.2,0.6,2.4,1.7,3l7.2,4.4l7.3-4.4c1-0.6,1.7-1.8,1.7-3v-8.3c1.1,2.7,3.6,4.6,6.2,5
			c1.2,0.1,2,1.4,2.5,2.5c0.1,0.3,0.2,0.6,0.2,0.9c-1.1,0.4-2.2,0.9-3.3,1.4c-0.7,0.3-1.6,0.7-2.3,1.1c-0.8,0.4-1.5,0.7-2.3,1.2
			c-0.4,0.2-0.8,0.4-1.2,0.7c-0.4,0.2-0.7,0.5-1.1,0.7c-0.8,0.5-1.4,1.1-2.1,1.6c0,0-0.1,0.1-0.1,0.1c0.1-0.6-0.1-1.1,0.1-2.1
			c0,0-0.6,0.3-0.9,1c-0.2,0.6,0.1,0.8,0,1.7c-1,1-2,2.1-2.7,3.3c-0.4,0.6-0.7,1.2-0.9,1.8C44.8,42.5,44.6,42.1,44.3,41.9z M74.4,35.6
			c0-0.3-0.2-0.5-0.5-0.5c-0.3,0-0.5,0.2-0.5,0.5c0,0.3,0.2,0.5,0.5,0.5C74.2,36.1,74.4,35.9,74.4,35.6z M69.6,35.3
			c0,0.3,0.2,0.5,0.5,0.5c0.3,0,0.5-0.2,0.5-0.5s-0.2-0.5-0.5-0.5C69.8,34.9,69.6,35.1,69.6,35.3z M74.4,37.4c0.3,0,0.5-0.2,0.5-0.5
			c0-0.3-0.2-0.5-0.5-0.5c-0.3,0-0.5,0.2-0.5,0.5C73.9,37.2,74.1,37.4,74.4,37.4z M75.8,35.9c0-0.3-0.2-0.5-0.5-0.5s-0.5,0.2-0.5,0.5
			c0,0.3,0.2,0.5,0.5,0.5S75.8,36.2,75.8,35.9z M68.4,34.2c0,0.3,0.2,0.5,0.5,0.5s0.5-0.2,0.5-0.5c0-0.3-0.2-0.5-0.5-0.5
			S68.4,34,68.4,34.2z M67.8,36.3c0,0.3,0.2,0.5,0.5,0.5s0.5-0.2,0.5-0.5c0-0.3-0.2-0.5-0.5-0.5S67.8,36.1,67.8,36.3z M57.1,36.3
			c-0.2-0.1-0.5,0-0.6,0.3c-0.1,0.2,0,0.5,0.3,0.6c0.2,0.1,0.5,0,0.6-0.3C57.4,36.7,57.3,36.4,57.1,36.3z M57,34.9
			c-0.2-0.1-0.5,0-0.6,0.3c-0.1,0.2,0,0.5,0.3,0.6c0.2,0.1,0.5,0,0.6-0.3C57.4,35.3,57.3,35,57,34.9z M55.7,35.6
			c-0.2-0.1-0.5,0-0.6,0.3c-0.1,0.2,0,0.5,0.3,0.6c0.2,0.1,0.5,0,0.6-0.3C56,35.9,55.9,35.7,55.7,35.6z M75.9,37.6
			c0.3,0,0.5-0.2,0.5-0.5c0-0.3-0.2-0.5-0.5-0.5c-0.3,0-0.5,0.2-0.5,0.5C75.5,37.4,75.7,37.6,75.9,37.6z M32.1,35.6
			c-0.2,0.1-0.3,0.4-0.3,0.6c0.1,0.2,0.4,0.3,0.6,0.3c0.2-0.1,0.3-0.4,0.3-0.6C32.6,35.6,32.3,35.5,32.1,35.6z M30.7,36.3
			c-0.2,0.1-0.3,0.4-0.3,0.6c0.1,0.2,0.4,0.3,0.6,0.3c0.2-0.1,0.3-0.4,0.3-0.6C31.2,36.4,30.9,36.3,30.7,36.3z M31.3,35.2
			c-0.1-0.2-0.4-0.3-0.6-0.3c-0.2,0.1-0.3,0.4-0.3,0.6c0.1,0.2,0.4,0.3,0.6,0.3C31.3,35.7,31.4,35.4,31.3,35.2z M25.2,42.8
			c0-0.3-0.2-0.5-0.5-0.5s-0.5,0.2-0.5,0.5c0,0.3,0.2,0.5,0.5,0.5S25.2,43.1,25.2,42.8z M11.4,37.2c0,0.3,0.2,0.5,0.5,0.5
			c0.3,0,0.5-0.2,0.5-0.5c0-0.3-0.2-0.5-0.5-0.5C11.6,36.7,11.4,36.9,11.4,37.2z M19.3,45.2c0,0.3,0.2,0.5,0.5,0.5
			c0.3,0,0.5-0.2,0.5-0.5c0-0.3-0.2-0.5-0.5-0.5C19.5,44.7,19.3,44.9,19.3,45.2z M18.9,34.7c0.3,0,0.5-0.2,0.5-0.5
			c0-0.3-0.2-0.5-0.5-0.5s-0.5,0.2-0.5,0.5C18.4,34.5,18.6,34.7,18.9,34.7z M18.2,35.3c0-0.3-0.2-0.5-0.5-0.5c-0.3,0-0.5,0.2-0.5,0.5
			s0.2,0.5,0.5,0.5C17.9,35.8,18.2,35.6,18.2,35.3z M12.9,35.9c0-0.3-0.2-0.5-0.5-0.5c-0.3,0-0.5,0.2-0.5,0.5c0,0.3,0.2,0.5,0.5,0.5
			C12.7,36.4,12.9,36.2,12.9,35.9z M14.3,35.6c0-0.3-0.2-0.5-0.5-0.5c-0.3,0-0.5,0.2-0.5,0.5c0,0.3,0.2,0.5,0.5,0.5
			C14.1,36.1,14.3,35.9,14.3,35.6z M12.9,36.9c0,0.3,0.2,0.5,0.5,0.5c0.3,0,0.5-0.2,0.5-0.5c0-0.3-0.2-0.5-0.5-0.5
			C13.1,36.5,12.9,36.7,12.9,36.9z M42.7,50.4L40,50.6l0,0.7l0.9-0.1l0.2,2.4l0.8-0.1l-0.2-2.4l0.9-0.1L42.7,50.4z M43.9,17.8
			c0.1,0,0.2-0.1,0.2-0.2c0-0.1-0.2-0.4-0.2-0.4s-0.2,0.3-0.2,0.4C43.7,17.7,43.8,17.8,43.9,17.8z M47.7,17.8c0.1,0,0.2-0.1,0.2-0.2
			c0-0.1-0.2-0.4-0.2-0.4s-0.2,0.3-0.2,0.4C47.5,17.7,47.6,17.8,47.7,17.8z M50.9,31.9c0,0.1,0.1,0.2,0.2,0.2c0.1,0,0.2-0.1,0.2-0.2
			c0-0.1-0.2-0.4-0.2-0.4S50.9,31.8,50.9,31.9z M47.7,34.1c0,0.1,0.1,0.2,0.2,0.2c0.1,0,0.2-0.1,0.2-0.2c0-0.1-0.2-0.4-0.2-0.4
			S47.7,33.9,47.7,34.1z M51.6,28.2c0.1,0,0.2-0.1,0.2-0.2c0-0.1-0.2-0.4-0.2-0.4s-0.2,0.3-0.2,0.4C51.4,28.1,51.5,28.2,51.6,28.2z
			M39.6,34.1c0,0.1,0.1,0.2,0.2,0.2c0.1,0,0.2-0.1,0.2-0.2c0-0.1-0.2-0.4-0.2-0.4S39.6,34,39.6,34.1z M49.2,21.7
			C49.2,21.7,49.2,21.7,49.2,21.7c-0.1,0-0.1,0-0.1,0.1l-0.1,0.5H49l0.2-0.5C49.3,21.8,49.3,21.8,49.2,21.7
			C49.2,21.7,49.2,21.7,49.2,21.7z M48.7,21.7C48.7,21.7,48.7,21.7,48.7,21.7c-0.1,0-0.2,0.1-0.2,0.1l0,0.5h0.2l0.1-0.5
			C48.9,21.8,48.9,21.7,48.7,21.7z M39.8,17.8c0.1,0,0.2-0.1,0.2-0.2c0-0.1-0.2-0.4-0.2-0.4s-0.2,0.3-0.2,0.4
			C39.6,17.7,39.7,17.8,39.8,17.8z M47.8,21.7C47.8,21.7,47.8,21.7,47.8,21.7c-0.1,0-0.1,0-0.1,0.1c0,0,0,0.1,0,0.1l0.2,0.5H48
			l-0.1-0.5C47.9,21.7,47.8,21.7,47.8,21.7z M48.3,21.7C48.2,21.7,48.2,21.7,48.3,21.7c-0.1,0-0.1,0-0.1,0.1c0,0,0,0.1,0,0.1l0.1,0.5
			h0.2l0-0.5C48.4,21.8,48.4,21.7,48.3,21.7z M51.6,23c0.1,0,0.2-0.1,0.2-0.2c0-0.1-0.2-0.4-0.2-0.4s-0.2,0.3-0.2,0.4
			C51.4,22.9,51.5,23,51.6,23z M79.4,44.4c-0.7,0.5-0.7,1.2-1.7,2.1c0,0,0.8,0.1,1.5-0.4c0.7-0.5,0.4-0.9,1.5-2.1
			C80.7,44,80.1,44,79.4,44.4z M82.7,46.8c-0.3,0-0.5,0.2-0.5,0.5c0,0.3,0.2,0.5,0.5,0.5c0.3,0,0.5-0.2,0.5-0.5
			C83.2,47,83,46.8,82.7,46.8z M80.5,46.6c0.3,0,0.5-0.2,0.5-0.5c0-0.3-0.2-0.5-0.5-0.5s-0.5,0.2-0.5,0.5
			C80.1,46.4,80.3,46.6,80.5,46.6z M76.9,48.4c-0.3,0-0.5,0.2-0.5,0.5c0,0.3,0.2,0.5,0.5,0.5c0.3,0,0.5-0.2,0.5-0.5
			C77.3,48.6,77.1,48.4,76.9,48.4z M76.1,48.4c0-0.3-0.2-0.5-0.5-0.5c-0.3,0-0.5,0.2-0.5,0.5c0,0.3,0.2,0.5,0.5,0.5
			C75.9,48.8,76.1,48.6,76.1,48.4z M51.6,17.8c0.1,0,0.2-0.1,0.2-0.2c0-0.1-0.2-0.4-0.2-0.4s-0.2,0.3-0.2,0.4
			C51.4,17.7,51.5,17.8,51.6,17.8z M83.5,45.6c-0.3,0-0.5,0.2-0.5,0.5c0,0.3,0.2,0.5,0.5,0.5c0.3,0,0.5-0.2,0.5-0.5
			C84,45.8,83.8,45.6,83.5,45.6z M49.4,21.2l0.5-2.3l-1.5,0.6L47,18.9l0.5,2.3L46.7,21l0.3,1.1l-0.3,1.1l0.9-0.1L47,25.5l1.5-0.6
			l1.5,0.6l-0.5-2.3l0.9,0.1L50,22.2l0.3-1.1L49.4,21.2z M48.3,21.2h0.1v-0.1h0.1v0.1h0.1v0.1h-0.1v0.1h-0.1v-0.1L48.3,21.2L48.3,21.2
			z M49.4,21.9c0,0,0,0.1-0.1,0.3c0,0.1-0.1,0.2-0.1,0.3l0,0v0.3h-1.3v-0.3h0l0,0c0-0.1-0.1-0.2-0.1-0.3c-0.1-0.2-0.1-0.2-0.1-0.3
			c0-0.1,0.1-0.3,0.2-0.3c0,0,0,0,0,0c0,0,0.1,0,0.2,0.1c0.1-0.1,0.2-0.1,0.3-0.1c0.1,0,0.2,0,0.2,0.1c0.1-0.1,0.2-0.1,0.2-0.1
			c0.1,0,0.2,0.1,0.3,0.1c0.1-0.1,0.1-0.1,0.2-0.1c0,0,0,0,0,0c0.1,0,0.1,0.1,0.2,0.1C49.4,21.7,49.4,21.8,49.4,21.9z M82.5,45.8
			c0-0.3-0.2-0.5-0.5-0.5c-0.3,0-0.5,0.2-0.5,0.5s0.2,0.5,0.5,0.5C82.3,46.3,82.5,46.1,82.5,45.8z M81.4,47.7c0.3,0,0.5-0.2,0.5-0.5
			c0-0.3-0.2-0.5-0.5-0.5s-0.5,0.2-0.5,0.5C80.9,47.5,81.1,47.7,81.4,47.7z M36.6,32.1c0.1,0,0.2-0.1,0.2-0.2c0-0.1-0.2-0.4-0.2-0.4
			s-0.2,0.3-0.2,0.4C36.4,32,36.4,32.1,36.6,32.1z M43.9,62.4L43.9,62.4L43.9,62.4C43.8,62.3,43.8,62.4,43.9,62.4z M36,51.3l-0.8,0.2
			l0.4,1.8c0.1,0.4-0.1,0.7-0.5,0.8c-0.4,0.1-0.7-0.1-0.8-0.5l-0.4-1.8L33.1,52l0.4,1.8c0.2,0.7,0.8,1.2,1.8,0.9
			c1-0.2,1.3-0.9,1.2-1.6L36,51.3z M35.9,22.7c0,0.1,0.1,0.2,0.2,0.2c0.1,0,0.2-0.1,0.2-0.2c0-0.1-0.2-0.4-0.2-0.4
			S35.9,22.6,35.9,22.7z M35.9,17.5c0,0.1,0.1,0.2,0.2,0.2c0.1,0,0.2-0.1,0.2-0.2c0-0.1-0.2-0.4-0.2-0.4S35.9,17.4,35.9,17.5z
			M52.5,54l-1.3-0.3l0.5-2.3L51,51.2l-0.7,3l2.1,0.5L52.5,54z M30.7,52.5l-0.8,3.2l0.9-0.1l0.1-0.5l1.3-0.2l0.2,0.4l0.9-0.1l-1.7-2.9
			L30.7,52.5z M31,54.4l0.3-1.3l0.6,1.2L31,54.4z M38.4,52.1c-0.4,0-0.6,0-0.6-0.2c0-0.1,0.1-0.3,0.3-0.3c0.3,0,0.7,0,1,0.2l0.4-0.6
			c-0.4-0.2-0.9-0.3-1.4-0.2c-0.8,0.1-1.2,0.7-1.1,1.2c0.1,0.7,0.9,0.7,1.4,0.7c0.4,0,0.6,0,0.6,0.2c0,0.1-0.1,0.3-0.4,0.3
			c-0.4,0.1-0.8,0-1.1-0.2l-0.3,0.7c0.4,0.2,0.9,0.4,1.5,0.2c0.9-0.1,1.3-0.6,1.2-1.2C39.7,52.1,38.9,52.1,38.4,52.1z M55.3,55.4
			l0.2-0.4l1.3,0.2l0.1,0.5l0.9,0.1l-0.8-3.2l-1-0.1l-1.6,2.9L55.3,55.4z M56.5,53.1l0.3,1.3l-0.9-0.1L56.5,53.1z M54.5,52l-0.8-0.2
			l-0.7,3l0.8,0.2L54.5,52z M75.6,49.2c-0.7-0.5-1.5-0.4-1.5-0.4c1,0.9,1.1,1.6,1.7,2.1c0.7,0.4,1.3,0.4,1.3,0.4
			C76,50.1,76.3,49.7,75.6,49.2z M50,30.8c0.1,0,0.1-0.2,0-0.3c0,0,0-0.1,0-0.1c0,0,0-0.1,0.1-0.1c0-0.1-0.1-0.1-0.2-0.1
			c-0.2-0.1-0.1-0.4-0.1-0.5c0-0.1-0.1-0.1,0-0.1c0,0,0.1,0,0.2,0c0.1-0.1,0.2-0.2,0.2-0.3c0-0.4-0.6-0.4-0.9-0.4c-0.1,0-0.2,0-0.4,0
			c-0.2,0-0.2-0.1,0-0.2c0.1,0,0.2,0,0.3,0c0.1,0,0.2-0.1,0.3-0.1c0.1,0,0.2,0,0.3-0.1c0,0,0.1-0.1,0.1-0.1c0,0-0.1,0-0.2,0.1
			c-0.1,0-0.2-0.1-0.4,0c-0.1,0-0.1,0.1-0.2,0.2c-0.1,0-0.1,0-0.2,0c-0.1,0-0.3,0-0.3,0.2c0,0.2,0.2,0.3,0.3,0.3c0.3,0,0.7-0.2,0.9,0
			c0.1,0.1,0.1,0.2,0,0.3c-0.1,0.1-0.3,0-0.4,0c-0.3-0.1-0.5-0.1-0.8-0.1c-0.1,0-0.2,0-0.2,0c0,0,0,0,0,0c0,0,0-0.1,0-0.1
			c0-0.1-0.1-0.1-0.1-0.1c0-0.1,0-0.1,0-0.1c0,0,0,0-0.1-0.1c0,0,0-0.1,0-0.1c0,0-0.1-0.1-0.2-0.1c0-0.1,0.2-0.1,0.1-0.2
			c0-0.1-0.1,0-0.2-0.1c0-0.1,0-0.1,0-0.2c-0.1,0-0.1,0.1-0.2,0.1c0-0.2-0.1,0-0.2,0c-0.1,0-0.1,0-0.2,0c-0.1,0,0,0.1-0.1,0.1
			c0,0-0.1,0-0.1,0c0,0-0.1,0-0.1,0c0,0,0,0.2,0,0.2c0.1,0.1,0.1,0.1,0.2,0.1c0.2,0,0,0.1-0.1,0.1c0,0-0.3,0-0.1,0.1
			c0.1,0,0.2-0.1,0.3-0.1c0.1,0.1-0.3,0.1-0.1,0.2c0.1,0,0.2,0,0.1,0.1c0,0-0.1,0-0.1,0.1c0,0,0,0.1,0,0.1c0,0.1-0.1,0.1-0.1,0.2
			c0,0,0,0,0,0c-0.1,0-0.2,0.1-0.3,0c-0.1-0.1,0-0.2-0.1-0.3c-0.1,0-0.2,0-0.2,0c-0.1,0.1-0.1,0.2,0,0.2c-0.1,0-0.1,0.1-0.1,0.1
			c0,0,0,0,0,0c0,0,0.1,0.1,0.1,0.1c0,0,0,0,0.1,0c0,0,0,0.1,0.1,0.2c0,0,0.1,0,0.1,0c0,0,0.1,0,0,0c0,0,0,0,0,0c0,0,0,0,0,0
			c0.1,0,0.1,0,0.2,0c0.1,0,0.1,0.1,0.2,0.1c0,0-0.1,0-0.1,0.1c0.1,0,0.2,0.1,0.3-0.1c0,0.2,0,0.5-0.1,0.5c-0.1,0-0.1-0.1-0.2,0
			c-0.1,0.1-0.1,0.2,0,0.2c0,0,0,0,0,0c0,0.1,0.2,0,0.2,0.1c0,0,0.1-0.1,0.1-0.1c0,0,0,0,0,0c0.1,0,0.1-0.2,0.2-0.2
			c0.1-0.1,0.1-0.3,0.2-0.4c0.1-0.1,0.3-0.1,0.4-0.1c0,0,0.1,0,0.1,0c-0.1,0.1,0.1,0.3,0.1,0.3c0.1,0.1,0.2,0.2,0,0.2
			c-0.1,0-0.2-0.1-0.3,0c-0.1,0.1,0,0.2,0,0.3c0-0.1,0.1-0.1,0.1,0c0.1,0,0,0,0.1,0c0,0,0,0,0,0c0,0,0,0,0,0c0,0,0.2-0.1,0.1-0.1
			c0.1,0,0.2-0.1,0.2-0.2c0.1-0.1,0.1-0.1,0.1-0.1c0.1,0,0.1,0,0.1-0.1c0-0.1-0.3-0.1-0.2-0.3c0,0,0.1-0.1,0.1-0.1c0-0.1,0-0.1,0-0.2
			c0.1,0,0.2,0.1,0.2,0.2c0,0.1,0.1,0.2,0.2,0.3c0.1,0.1,0.3,0,0.3,0.1c0,0.1,0,0.2,0,0.3c-0.1,0-0.1,0-0.1,0c0,0,0,0-0.1,0.1
			c0,0,0,0.1,0,0.1c0.1,0,0.1-0.1,0.1,0.1c0.1,0,0.1-0.1,0.1,0C49.8,30.8,49.9,30.8,50,30.8C50,30.8,50,30.8,50,30.8z M44,24.5l-0.4,0
			l-0.2-0.4l-0.2,0.4l-0.4,0l0.2,0.4l-0.3,0.3l0.4,0.1v0.4l0.4-0.3l0.4,0.3v-0.4l0.4-0.1l-0.3-0.3L44,24.5z M44.2,21.6l0.1-0.2l-0.2,0
			L44,21.1l-0.1,0.3l-0.2,0l0.1,0.2l-0.2,0.2l0.2,0v0.3l0.2-0.2l0.2,0.2v-0.3l0.2,0L44.2,21.6z M45.1,24.1l-0.1,0l-0.1-0.1l-0.1,0.1
			l-0.1,0l0.1,0.1l-0.1,0.1l0.1,0v0.1l0.1-0.1l0.1,0.1v-0.1l0.1,0l-0.1-0.1L45.1,24.1z M42.6,23.3v0.3l0.2-0.2l0.2,0.2v-0.3l0.2,0
			L43.1,23l0.1-0.2l-0.2,0l-0.1-0.2l-0.1,0.3l-0.2,0l0.1,0.2l-0.2,0.2L42.6,23.3z M42.9,20c0.1,0.1,0.1,0.3,0.2,0.4l0,0h0v0.4h1.7
			v-0.4l0,0c0-0.1,0.1-0.2,0.2-0.4c0.1-0.2,0.1-0.3,0.1-0.4c0-0.1,0-0.2,0-0.2c0-0.1-0.1-0.1-0.2-0.1c0,0,0,0-0.1,0c0,0-0.1,0-0.2,0.1
			c-0.1-0.1-0.2-0.1-0.3-0.2c0,0,0,0,0,0c-0.3-0.1-0.3-0.4-0.3-0.4s0,0.3-0.3,0.4c0,0,0,0,0,0c-0.1,0-0.2,0.1-0.3,0.2
			c-0.1-0.1-0.2-0.1-0.2-0.1c0,0,0,0-0.1,0c-0.2,0-0.3,0.2-0.2,0.4C42.7,19.7,42.8,19.8,42.9,20z M44.6,19.6c0-0.1,0.1-0.1,0.1-0.1
			c0,0,0,0,0,0c0,0,0.1,0,0.1,0.1c0,0,0,0.1,0,0.1l-0.3,0.6h-0.1L44.6,19.6z M44,19.6c0,0,0-0.2,0.2-0.2c0,0,0,0,0,0
			c0.2,0,0.2,0.2,0.2,0.2l-0.1,0.7H44L44,19.6z M43.4,19.5c0,0,0.1-0.1,0.1-0.1c0,0,0,0,0,0c0.2,0,0.2,0.2,0.2,0.2l0,0.7h-0.3
			l-0.1-0.7C43.4,19.6,43.4,19.5,43.4,19.5z M42.9,19.6C42.9,19.6,42.9,19.5,42.9,19.6c0.1-0.1,0.1-0.1,0.1-0.1c0,0,0.1,0,0.1,0.1
			l0.1,0.7h-0.2l-0.3-0.6C42.9,19.7,42.9,19.6,42.9,19.6z M37.9,29.4c-0.1,0.1-0.2,0.2-0.3,0.3c0.1,0,0.2,0,0.3,0
			c-0.1,0.1-0.2,0.2-0.2,0.4c0.1,0,0.3-0.1,0.3-0.1c-0.1,0.1-0.1,0.3-0.2,0.4c0.2,0,0.3-0.2,0.4-0.2c0,0.1-0.1,0.2-0.1,0.4
			c0.1,0,0.2-0.2,0.3-0.3c0,0.1-0.1,0.2,0,0.3c0.2-0.1,0.2-0.3,0.3-0.5c0,0,0,0.1,0,0.2l-0.2,0.4h-0.5v0c-0.1,0-0.1,0-0.1,0.1
			s0,0.1,0.1,0.1l0.6,0c-0.1,0-0.1,0-0.2,0c0.1,0.1,0.2,0.1,0.4,0c0,0.1-0.1,0.1-0.2,0.1c0.1,0,0.3,0,0.3-0.1c0,0.2,0.1,0.4,0.2,0.4
			c0.1-0.1,0.2-0.2,0.2-0.5c0.1,0.1,0.2,0.1,0.3,0.1c-0.1,0-0.2-0.1-0.2-0.1c0.1,0.1,0.3,0,0.3,0c-0.1,0-0.2,0-0.2,0l0.7,0
			c0.1,0,0.1,0,0.1-0.1s0-0.1-0.1-0.1h-0.5l-0.3-0.5c0-0.1,0-0.1,0-0.1c0.1,0.2,0.2,0.4,0.3,0.5c0-0.1,0-0.2,0-0.3
			c0.1,0.1,0.2,0.2,0.3,0.3c0-0.1-0.1-0.3-0.1-0.4c0.1,0.1,0.2,0.2,0.4,0.3c0-0.2-0.1-0.3-0.2-0.4c0.1,0.1,0.2,0.1,0.3,0.1
			c0-0.2-0.1-0.3-0.2-0.4c0.1,0,0.2,0.1,0.3,0c-0.1-0.1-0.2-0.2-0.3-0.3c0.1,0,0.3,0,0.3-0.1c-0.1-0.1-0.2-0.1-0.3-0.2
			c0.1,0,0.2,0,0.3-0.1c-0.1,0-0.2-0.1-0.3-0.1c0.2-0.1,0.3-0.1,0.4-0.3c-0.1,0-0.2,0-0.3,0c0.1-0.1,0.3-0.2,0.3-0.4c0,0-0.1,0-0.1,0
			c0.1-0.1,0.1-0.2,0.1-0.2c0,0,0,0,0,0c0,0,0.1-0.1,0-0.1c-0.1,0-0.1,0-0.1,0c0.1-0.1,0.2-0.2,0.2-0.4c-0.3,0.1-0.4,0.3-0.6,0.4
			c0,0,0-0.1,0-0.1c-0.2,0.3-0.7,0.4-0.8,0.8c0,0.2,0.1,0.3,0.2,0.5c0,0.1-0.1,0.2-0.2,0.2c0,0-0.1-0.1-0.1-0.2c0,0,0,0,0-0.1
			c0-0.1,0-0.2,0-0.2l0-0.2c0,0,0-0.1,0-0.1c0.1-0.4-0.3-0.4-0.3-0.3c0,0-0.1,0-0.1,0.1c-0.1,0-0.1,0-0.1,0c0,0-0.1,0.1,0,0.2
			c0,0,0,0,0.1,0c0.1,0,0.2,0,0.2,0.1c0,0,0,0,0,0c-0.1,0-0.2,0-0.3,0c0,0.1,0.1,0.1,0.2,0.1c0,0,0,0.2-0.1,0.3c0,0.1-0.1,0.1-0.1,0.1
			c-0.1,0.1-0.1,0.1-0.2,0.1c0,0-0.1,0-0.1-0.1c-0.1-0.2,0.1-0.3,0.2-0.5c0.1-0.5-0.6-0.7-0.8-0.9c0,0,0,0.1,0,0.1
			c-0.2-0.1-0.3-0.3-0.6-0.4c0,0.2,0.1,0.3,0.2,0.4c-0.1,0-0.1-0.1-0.1-0.1c0,0.2,0.1,0.2,0.1,0.3c0,0-0.1,0-0.1,0
			c0,0.2,0.2,0.3,0.3,0.4c-0.1,0-0.2,0-0.3,0c0.1,0.1,0.2,0.2,0.3,0.3c-0.1,0-0.2,0.1-0.3,0.1c0.1,0.1,0.2,0.1,0.3,0.1
			c-0.1,0-0.2,0.1-0.3,0.2C37.6,29.3,37.8,29.3,37.9,29.4z M39.5,30.4C39.5,30.3,39.5,30.3,39.5,30.4l0.2,0.3h-0.2
			C39.4,30.5,39.4,30.5,39.5,30.4z M38.9,30.3C38.9,30.3,38.9,30.4,38.9,30.3c0.1,0.1,0.1,0.2,0,0.3h-0.2L38.9,30.3z M37.5,31.8
			l6.4,3.9l6.4-3.9c0.5-0.3,0.9-0.9,0.9-1.6V17.9H36.6v12.3C36.6,30.9,36.9,31.5,37.5,31.8z M46.5,18.6h4v7.4h-4V18.6z M46.5,26.6h4
			v3.6c0,0.4-0.2,0.8-0.6,1l-3.4,2.1V26.6z M41.9,18.6h4v7.4h-4V18.6z M41.9,26.6h4v7.2l-2,1.2l-2-1.2V26.6z M40.1,18.6h1.1v2.8h-1.1
			V18.6z M40.2,22.3l0.2-0.2L40.3,22l0.2,0l0.1-0.2l0.1,0.2l0.2,0l-0.1,0.2l0.2,0.2l-0.2,0v0.2l-0.2-0.1l-0.2,0.1v-0.2L40.2,22.3z
			M40.1,23h1.1v2.9h-1.1V23z M38.8,19.4l0.2,0l0.1-0.2l0.1,0.2l0.2,0l-0.1,0.2l0.2,0.2l-0.2,0V20l-0.2-0.1L39,20v-0.2l-0.2,0l0.2-0.2
			L38.8,19.4z M38.5,22.2C38.5,22.1,38.5,22.1,38.5,22.2c0-0.1,0.1-0.1,0.1-0.1c0,0,0,0.1,0,0.1c0,0,0.1,0,0.1,0c0,0,0,0,0,0
			c0,0,0,0,0-0.1c0,0,0,0,0,0c0,0,0,0,0,0c0,0,0,0-0.1,0c-0.1-0.1,0.1,0,0-0.1c0,0-0.1,0.1-0.1,0c-0.1,0,0,0,0,0c0,0,0.1,0,0,0
			c0,0-0.1,0-0.1,0c0,0,0-0.1,0-0.1c0,0,0,0,0.1,0c0,0,0,0,0,0c0,0,0,0,0,0c0,0,0.1,0,0.1,0c0,0,0.1-0.1,0.1,0c0,0,0,0,0.1,0
			c0,0,0,0.1,0,0.1c0,0,0.1,0,0.1,0c0,0.1-0.1,0.1-0.1,0.1c0,0,0.1,0,0.1,0c0,0,0,0,0,0c0,0,0,0,0,0c0,0,0,0,0,0.1c0,0,0.1,0,0.1,0.1
			c0,0,0,0,0,0c0,0,0,0,0,0c0,0,0.1,0,0.1,0c0.1,0,0.2,0,0.4,0c0,0,0.1,0,0.2,0c0,0,0-0.1,0-0.1c-0.1-0.1-0.3,0-0.4,0
			c-0.1,0-0.1,0-0.1-0.1c0-0.1,0.1-0.1,0.1-0.1c0,0,0.1,0,0.1,0c0,0,0,0,0.1-0.1c0.1,0,0.1,0,0.2,0c0,0,0.1,0,0.1,0c0,0,0,0,0,0.1
			c0,0.1-0.1,0-0.1,0.1c-0.1,0-0.1,0-0.1,0c0,0-0.1,0-0.1,0c-0.1,0-0.1,0.1,0,0.1c0.1,0,0.1,0,0.2,0c0.1,0,0.4,0,0.4,0.2
			c0,0.1,0,0.1-0.1,0.1c0,0-0.1,0-0.1,0c0,0,0,0,0,0.1c0,0.1,0,0.2,0,0.2c0,0,0.1,0,0.1,0c0,0,0,0,0,0.1c0,0,0,0,0,0c0,0,0,0.1,0,0.1
			c0,0,0,0,0,0c0,0-0.1,0-0.1,0c0-0.1,0,0,0,0c0-0.1,0,0,0,0c0,0,0,0,0,0c0,0,0,0,0,0c0,0,0,0,0.1,0c0,0,0-0.1,0-0.1
			c0,0-0.1,0-0.1-0.1c0,0-0.1-0.1-0.1-0.1c0,0,0-0.1-0.1-0.1c0,0,0,0.1,0,0.1c0,0,0,0,0,0c0,0.1,0.1,0.1,0.1,0.1c0,0,0,0,0,0.1
			c0,0,0,0-0.1,0c0,0-0.1,0.1-0.1,0.1c0,0,0,0,0,0c0,0,0,0,0,0c0,0,0,0,0,0c0,0,0,0,0,0c0,0,0,0,0,0c0,0-0.1-0.1,0-0.1
			c0,0,0.1,0,0.1,0c0.1,0,0-0.1,0-0.1c0,0-0.1-0.1-0.1-0.1c0,0,0,0-0.1,0c0,0-0.1,0-0.2,0c-0.1,0-0.1,0.1-0.1,0.2c0,0,0,0.1-0.1,0.1
			c0,0,0,0,0,0c0,0-0.1,0-0.1,0c0-0.1-0.1,0-0.1-0.1c0,0,0,0,0,0c0,0,0-0.1,0-0.1c0,0,0.1,0,0.1,0c0,0,0-0.2,0-0.2c0,0.1-0.1,0-0.1,0
			c0,0,0,0,0,0c0,0,0,0-0.1,0c0,0,0,0-0.1,0c0,0,0,0,0,0c0,0,0,0,0,0c0,0,0,0,0,0c0,0,0,0,0,0C38.6,22.3,38.6,22.3,38.5,22.2
			C38.6,22.3,38.6,22.3,38.5,22.2C38.5,22.3,38.5,22.2,38.5,22.2C38.5,22.2,38.5,22.2,38.5,22.2C38.5,22.2,38.5,22.2,38.5,22.2z
			M38.8,25.1l0.2-0.2l-0.1-0.2l0.2,0l0.1-0.2l0.1,0.2l0.2,0L39.4,25l0.2,0.2l-0.2,0v0.2l-0.2-0.1L39,25.4v-0.2L38.8,25.1z M37.2,18.6
			h1.2v2.8h-1.2V18.6z M37.5,22.3l0.2-0.2L37.5,22l0.2,0l0.1-0.2L38,22l0.2,0l-0.1,0.2l0.2,0.2l-0.2,0v0.2l-0.2-0.1l-0.2,0.1v-0.2
			L37.5,22.3z M37.2,23h1.2v2.9h-1.2V23z M37.2,26.6h4v6.8l-3.4-2.1c-0.4-0.2-0.6-0.6-0.6-1V26.6z M35.9,27.9c0,0.1,0.1,0.2,0.2,0.2
			c0.1,0,0.2-0.1,0.2-0.2c0-0.1-0.2-0.4-0.2-0.4S35.9,27.8,35.9,27.9z M45.2,22.6l-0.2,0l-0.1-0.2l-0.1,0.3l-0.2,0l0.1,0.2L44.3,23
			l0.2,0v0.3l0.2-0.2l0.2,0.2v-0.3l0.2,0L45,22.9L45.2,22.6z M44.5,32.3c0.4,0,0.8-0.2,1-0.6c0.2-0.6,0-1.2-0.4-1.7
			c-0.2-0.3-0.6-0.6-0.2-0.9c0,0,0,0,0,0c0.1,0.2,0.3,0.3,0.5,0.4c0,0,0,0,0,0c-0.1-0.2,0.1-0.6-0.4-0.7c-0.4-0.1-0.6,0.3-0.5,0.6
			c0,0.6,1.2,1.5,0.4,2.1c0,0,0,0,0,0c-0.1-0.5-0.3-0.9-0.9-1.2c-0.3-0.2-0.2-0.4-0.5-0.7c0,0,0,0,0,0l0,0.2c0,0,0,0,0,0
			c0-0.1-0.1-0.1-0.1-0.2c0,0,0,0,0,0c0,0.1,0,0.1,0,0.2c0,0-0.2-0.1-0.2-0.1c0,0,0,0,0,0c0,0.1,0.1,0.2,0.1,0.2
			c-0.1,0-0.1-0.1-0.2-0.1c0,0,0,0.1,0,0.2c0,0,0,0,0,0c0,0-0.1-0.1-0.1-0.1c0,0,0,0.1,0.1,0.2c0,0,0,0,0,0c-0.1,0-0.2-0.1-0.2-0.1
			l0.1,0.2c0,0,0,0,0,0l-0.2-0.1c0,0,0,0.1,0.1,0.2c0,0,0,0,0,0c0,0-0.1-0.1-0.1-0.1c0,0,0,0,0,0c0,0.1,0.1,0.2,0.1,0.3c0,0,0,0,0,0
			c0,0-0.1-0.1-0.1-0.1c0,0,0,0,0,0c0.1,0.1,0.1,0.2,0.2,0.3c0,0,0,0,0,0l-0.1-0.1c0,0,0,0,0,0l0.2,0.4c0,0,0,0,0,0
			c-0.2,0-0.7-0.1-0.8-0.3c0,0,0,0,0,0c0,0.4,0.3,0.8,0.6,1.2c0.1,0.2,0.5,0.3,0.8,0.3C43.8,32.3,44.3,32.3,44.5,32.3z"/>
 	</symbol>
</svg>
