<svg xmlns="http://www.w3.org/2000/svg">
	<symbol id="star" viewBox="0 0 24 24">
		<title>The Commonwealth Star</title>
		<polyline id="Shape" fill="currentColor" fill-rule="evenodd" points="14 2 11.553 8.36 5.178 6.356 8.5 12.286 3 16.146 9.59 17.181 9.103 24 14 19.36 18.895
			24 18.412 17.18 25 16.148 19.5 12.286 22.822 6.358 16.448 8.36"></polyline>
		<rect id="Rectangle" fill-opacity="0" fill="#D8D8D8" x="0.494356952" y="0.416408297" width="27.0112861" height="26.1671834"></rect>
	</symbol>
	<symbol id="govau_logo" viewBox="0 0 223.46 41.46">
		<title>Gov au logo</title>
		<path
			fill="#fff"
			d="M21.95 34.17a16.9 16.9 0 0 0 6.43-1.22v-6.14h-2.72c-1.22 0-2.27 0-2.78-.6s-.52-1.61-.52-3.16v-3.07h14.73v17.08c-5.45 3.89-12.87 5-19.42 4.08A20.62
			20.62 0 0 1 2.6 30.91a22 22 0 0 1-.77-19.18A19.89 19.89 0 0 1 16.03.64C23.26-.93 31.81.29 37.38 5.48c-1 1.44-1.85 3-3 4.36-1.7 2.07-3.81.35-5.62-.54a15.1
			15.1 0 0 0-6.32-1.5c-4.38-.14-8.51 1.49-10.78 5.41a16.38 16.38 0 0 0-1 12.92 11.59 11.59 0 0 0 11.26
			8zm53.71-13.44c0-5.16-2.11-10.46-7.34-12.25-4.83-1.66-11-.46-13.9 4-2.78 4.2-2.91 10.57-.83 15.08 2.29 5 7.68 6.77 12.83 5.92 6.34-1 9.23-6.75
			9.23-12.72m9.85 0a20.31 20.31 0 0 1-14.11 19.55c-8.29 2.63-18.4.68-24.18-6.08a21.49 21.49 0 0 1-1.73-24.67C50.23 1.91 59.66-1.05 68.27.38a20.94 20.94 0 0
			1 12.22 6.58 20.7 20.7 0 0 1 5 13.74M87.79.04h7.74a3.51 3.51 0 0 1 2.05.56 3.07 3.07 0 0 1 1.14 1.47s9.84 27 10.16 28.25c.26-1.22 9.93-28.25
			9.93-28.25a3.14 3.14 0 0 1 1.11-1.4 3.25 3.25 0 0 1 2-.62h7.8l-16.57 40.46h-8.71L87.81.04z"/>
		<path fill="transparent" d="M156.1 25.03h11.33s-5.34-15.55-5.66-16.66c-.31 1.13-5.67 16.66-5.67 16.66z"/>
		<path fill="#44c2ef" d="M223.35 14.73V.04h-9.62v16.32c0 6.5 1.16 16.73-8.2 16.73s-8.2-10.25-8.2-16.75V.04h-9.62v17.09c0 6.75-.55 13.9 4.75 19.07 7.95 7.75
			23.94 6.13 29.06-4.07 2.61-5.19 1.83-11.71 1.83-17.4zM156.84.04l-16 40.47h7.51a3.26 3.26 0 0 0 2-.62 3.15 3.15 0 0 0 1.11-1.4l2.45-7.06h15.77l2.45
			7.06a3 3 0 0 0 1.13 1.46 3.51 3.51 0 0 0 2.06.57h7.45L166.69.04h-9.85zm-.74 25s5.36-15.53 5.67-16.66c.32 1.11 5.66 16.66 5.66 16.66H156.1zm26.64
			15.46h.01-.01"/>
		<circle fill="#44c2ef" cx="130.73" cy="35.82" r="4.83"/>
 	</symbol>
</svg>
